<svg width="1100" height="1096" viewBox="0 0 1100 1096" fill="none" xmlns="http://www.w3.org/2000/svg">
<path d="M552.029 516.998V1046M365.29 859.294L552.029 1046L738.768 859.294M303.044 239.179C349.601 245.908 392.729 267.523 425.981 300.792M894.384 672.587C988.937 672.587 1050 595.975 1050 501.439C1050 464.012 1037.72 427.618 1015.06 397.83C992.393 368.043 960.587 346.505 924.511 336.515C918.961 266.716 890.028 200.827 842.389 149.503C794.751 98.1794 731.192 64.4193 661.988 53.6814C592.784 42.9436 521.981 55.8555 461.025 90.3297C400.069 124.804 352.523 178.825 326.075 243.66C270.391 228.227 210.856 235.543 160.567 263.997C110.278 292.452 73.3536 339.716 57.9179 395.39C42.4823 451.064 49.7992 510.589 78.2591 560.87C106.719 611.15 153.99 648.068 209.675 663.501" stroke="#66FF00" stroke-width="100" stroke-linecap="round" stroke-linejoin="round"/>
</svg>
