<svg width="1252" height="1252" viewBox="0 0 1252 1252" fill="none" xmlns="http://www.w3.org/2000/svg">
<path d="M410.551 105.857C513.426 63.2444 626.627 52.0949 735.838 73.8184C845.049 95.5419 945.366 149.163 1024.1 227.899C1102.84 306.636 1156.46 406.953 1178.18 516.164C1199.91 625.375 1188.76 738.576 1146.15 841.451C1103.53 944.326 1031.37 1032.25 938.788 1094.12C846.203 1155.98 737.353 1189 626.002 1189C541.23 1189 460.597 1170.25 388.281 1136.49L138.666 1187.71C117.923 1191.97 96.4279 1185.52 81.4543 1170.55C66.4807 1155.57 60.0316 1134.08 64.2883 1113.34L115.513 863.72C81.7526 791.415 63.0021 710.825 63.0021 626C63.0022 514.649 96.0217 405.799 157.885 313.214C219.748 220.629 307.676 148.469 410.551 105.857Z" stroke="white" stroke-width="126" stroke-linecap="round" stroke-linejoin="round"/>
</svg>
