<svg width="950" height="867" viewBox="0 0 950 867" fill="none" xmlns="http://www.w3.org/2000/svg">
<path d="M475 766.667L438.818 801.176C448.254 811.069 461.329 816.667 475 816.667C488.671 816.667 501.746 811.069 511.182 801.176L475 766.667ZM475 766.667L506.66 796.861C511.07 801.066 511.181 801.171 511.186 801.172C511.188 801.169 511.192 801.164 511.197 801.159C511.207 801.149 511.222 801.133 511.241 801.113C511.28 801.073 511.337 801.013 511.412 800.934C511.563 800.775 511.788 800.54 512.083 800.23C512.674 799.61 513.551 798.691 514.693 797.491C516.978 795.092 520.33 791.569 524.606 787.071C533.158 778.075 545.408 765.173 560.211 749.535C589.811 718.266 629.65 676.027 670.563 632.188C711.445 588.385 753.545 542.831 787.613 504.979C820.191 468.784 848.748 436.035 859.755 419.669L859.756 419.67C885.231 381.988 900 336.435 900 287.5C900 156.136 793.864 50 662.5 50C583.268 50 518.715 90.2416 475 142.831C431.285 90.2416 366.732 50 287.5 50C156.136 50 50 156.136 50 287.5C50 336.435 64.7691 381.988 90.2441 419.67L90.2451 419.669C101.252 436.035 129.809 468.784 162.387 504.979C196.455 542.831 238.555 588.385 279.437 632.188C320.35 676.027 360.189 718.266 389.789 749.535C404.592 765.173 416.842 778.075 425.394 787.071C429.67 791.569 433.022 795.092 435.307 797.491C436.449 798.691 437.326 799.61 437.917 800.23C438.212 800.54 438.437 800.775 438.588 800.934C438.663 801.013 438.72 801.073 438.759 801.113C438.778 801.133 438.793 801.149 438.803 801.159C438.808 801.164 438.812 801.169 438.814 801.172C438.819 801.171 438.931 801.065 443.34 796.861L475 766.667Z" fill="black" stroke="black" stroke-width="100" stroke-linecap="round" stroke-linejoin="round"/>
</svg>
