<svg width="1000" height="1214" viewBox="0 0 1000 1214" fill="none" xmlns="http://www.w3.org/2000/svg">
<path d="M0 1177C0 1197.43 16.5655 1214 37 1214H963C983.435 1214 1000 1197.43 1000 1177V1108.18C1000 1087.74 983.435 1071.18 963 1071.18H37C16.5655 1071.18 0 1087.74 0 1108.18V1177ZM936.819 491.637C960.132 468.329 943.625 428.471 910.659 428.471H751.286C730.851 428.471 714.286 411.905 714.286 391.471V37C714.286 16.5654 697.72 0 677.286 0H322.714C302.28 0 285.714 16.5655 285.714 37V391.471C285.714 411.905 269.149 428.471 248.714 428.471H89.3408C56.3752 428.471 39.868 468.329 63.1809 491.637L473.84 902.199C488.289 916.645 511.711 916.645 526.16 902.199L936.819 491.637Z" fill="white"/>
</svg>
