<svg width="913" height="805" viewBox="0 0 913 805" fill="none" xmlns="http://www.w3.org/2000/svg">
<path d="M456.045 588.79C437.475 588.79 422.499 603.833 422.499 622.316L422.511 623.179C422.609 627.074 423.375 630.805 424.695 634.263H456.045H487.394C488.812 630.55 489.591 626.522 489.591 622.316C489.591 604.121 475.079 589.26 456.913 588.8L456.045 588.79ZM456.045 634.263V588.79M456.045 634.263V588.79M819.052 725.21H813.218C814.223 723.547 815.194 721.864 816.13 720.161L819.052 725.21ZM95.9589 720.161C96.8949 721.864 97.8667 723.547 98.8719 725.21H93.038L95.9589 720.161ZM458.681 102.49C456.923 102.457 455.165 102.457 453.408 102.49L456.045 97.9341L458.681 102.49Z" stroke="white" stroke-width="158"/>
</svg>
