<svg width="1118" height="1363" viewBox="0 0 1118 1363" fill="none" xmlns="http://www.w3.org/2000/svg">
<path d="M309 0C417.927 0 522.512 42.7123 600.301 118.964C656.032 173.594 730.961 204.193 809 204.193C887.039 204.193 961.968 173.594 1017.7 118.964C1034.66 102.334 1059.95 97.5007 1081.85 106.701C1103.75 115.902 1118 137.341 1118 161.097V803.98C1118 819.832 1111.62 835.018 1100.3 846.114C1022.51 922.365 917.927 965.076 809 965.076C700.073 965.076 595.488 922.366 517.699 846.114C461.968 791.484 387.039 760.885 309 760.885C238.949 760.885 171.403 785.541 118 830.102V1304C118 1336.59 91.5846 1363 59 1363C26.4155 1363 0.000263918 1336.59 0 1304V161.097C8.8012e-05 145.245 6.37936 130.06 17.6992 118.964C95.4881 42.7124 200.073 8.37731e-05 309 0Z" fill="#FF0040"/>
</svg>
