<svg width="1000" height="1000" viewBox="0 0 1000 1000" fill="none" xmlns="http://www.w3.org/2000/svg">
<path d="M245.162 286.764C228.587 270.188 227.328 243.432 244.349 227.315C311.103 164.108 400.681 125 500 125C692.024 125 850.172 269.06 872.342 455.081C875.283 479.759 895.147 500 920 500H955C979.853 500 1000.21 479.786 998.006 455.031C975.274 199.934 761.015 0 500 0C368.384 0 249.14 51.0181 160.101 134.143C141.156 151.829 111.289 152.891 92.9635 134.565L76.8198 118.421C48.4714 90.0729 0 110.15 0 150.241V330C0 354.853 20.1472 375 45 375H224.759C264.85 375 284.927 326.529 256.579 298.18L245.162 286.764ZM754.796 713.195C771.389 729.787 772.63 756.577 755.579 772.698C688.737 835.897 599.312 875 500 875C307.976 875 149.828 730.94 127.658 544.919C124.717 520.241 104.853 500 80 500H45C20.1472 500 -0.211716 520.214 1.99418 544.969C24.7259 800.066 238.985 1000 500 1000C631.616 1000 750.86 948.982 839.899 865.857C858.844 848.171 888.711 847.109 907.037 865.435L923.18 881.579C951.529 909.927 1000 889.85 1000 849.759V670C1000 645.147 979.853 625 955 625H775.241C735.15 625 715.073 673.471 743.421 701.82L754.796 713.195Z" fill="white"/>
</svg>
