<svg width="1100" height="1100" viewBox="0 0 1100 1100" fill="none" xmlns="http://www.w3.org/2000/svg">
<path d="M339.525 41.8662C440.025 0.238173 550.611 -10.6535 657.301 10.5684C763.99 31.7903 861.99 84.173 938.909 161.092C1015.83 238.011 1068.21 336.011 1089.43 442.7C1110.65 549.39 1099.76 659.976 1058.13 760.476C1016.51 860.975 946.011 946.874 855.564 1007.31C765.117 1067.74 658.78 1100 550.001 1100C465.649 1100 385.527 1081 313.915 1046.88L60.0517 1098.98C43.5886 1102.36 26.5292 1097.24 14.6454 1085.36C2.76166 1073.47 -2.35683 1056.41 1.02139 1039.95L53.1171 786.086C18.9981 714.483 0.000912488 634.405 0.00088501 550C0.000903111 441.22 32.2576 334.883 92.6923 244.437C153.127 153.99 239.026 83.4944 339.525 41.8662Z" fill="#E1FF00"/>
</svg>
