<svg width="1200" height="1200" viewBox="0 0 1200 1200" fill="none" xmlns="http://www.w3.org/2000/svg">
<path d="M389.526 91.8663C490.025 50.2382 600.612 39.3466 707.301 60.5684C813.991 81.7903 911.991 134.173 988.91 211.092C1065.83 288.011 1118.21 386.011 1139.43 492.7C1160.66 599.39 1149.76 709.976 1108.14 810.476C1066.51 910.975 996.012 996.874 905.565 1057.31C815.118 1117.74 708.781 1150 600.002 1150C515.65 1150 435.528 1131 363.916 1096.88L110.052 1148.98C93.5893 1152.36 76.53 1147.24 64.6462 1135.36C52.7624 1123.47 47.6439 1106.41 51.0222 1089.95L103.118 836.086C68.9988 764.483 50.0016 684.405 50.0016 600C50.0017 491.22 82.2584 384.884 142.693 294.437C203.128 203.99 289.027 133.494 389.526 91.8663Z" fill="black" stroke="black" stroke-width="100" stroke-linecap="round" stroke-linejoin="round"/>
</svg>
