<svg width="1000" height="1000" viewBox="0 0 1000 1000" fill="none" xmlns="http://www.w3.org/2000/svg">
<path d="M240.598 282.2C226.601 268.203 225.558 245.643 239.7 231.792C306.915 165.96 398.357 125 500 125C694.418 125 854.109 272.675 873.107 462.057C875.202 482.939 892.013 500 913 500H962C982.987 500 1000.15 482.927 998.578 461.999C979.165 203.585 763.387 0 500 0C365.706 0 244.294 53.1152 154.704 139.256C138.928 154.425 113.696 155.297 98.2204 139.822L64.87 106.472C40.9314 82.5329 0 99.4873 0 133.342V337C0 357.987 17.0132 375 38 375H241.658C275.513 375 292.467 334.069 268.528 310.13L240.598 282.2ZM759.367 717.765C773.379 731.777 774.406 754.364 760.238 768.218C692.921 834.044 601.638 875 500 875C305.582 875 145.891 727.325 126.893 537.943C124.798 517.061 107.987 500 87 500H38C17.0132 500 -0.150218 517.073 1.42198 538.001C20.8354 796.415 236.613 1000 500 1000C634.294 1000 755.706 946.885 845.296 860.744C861.072 845.575 886.304 844.703 901.78 860.178L935.13 893.528C959.069 917.467 1000 900.513 1000 866.658V663C1000 642.013 982.987 625 962 625H758.342C724.487 625 707.533 665.931 731.472 689.87L759.367 717.765Z" fill="#00FFD5"/>
</svg>
