<svg width="1000" height="1000" viewBox="0 0 1000 1000" fill="none" xmlns="http://www.w3.org/2000/svg">
<path d="M500 777.778C515.741 777.778 528.944 772.444 539.611 761.778C550.278 751.111 555.593 737.926 555.556 722.222C555.519 706.519 550.185 693.333 539.556 682.667C528.926 672 515.741 666.667 500 666.667C484.259 666.667 471.074 672 460.444 682.667C449.815 693.333 444.481 706.519 444.444 722.222C444.407 737.926 449.741 751.13 460.444 761.833C471.148 772.537 484.333 777.852 500 777.778ZM444.444 500C444.444 530.682 469.318 555.556 500 555.556C530.682 555.556 555.556 530.683 555.556 500V277.778C555.556 247.095 530.682 222.222 500 222.222C469.318 222.222 444.444 247.095 444.444 277.778V500ZM320.662 1000C302.096 1000 284.292 992.625 271.164 979.498L20.5026 728.836C7.37502 715.708 0 697.904 0 679.338V320.662C0 302.096 7.37498 284.292 20.5025 271.164L271.164 20.5026C284.292 7.37502 302.096 0 320.662 0H679.338C697.904 0 715.708 7.37498 728.836 20.5025L979.497 271.164C992.625 284.292 1000 302.096 1000 320.662V679.338C1000 697.904 992.625 715.708 979.498 728.836L728.836 979.497C715.708 992.625 697.904 1000 679.338 1000H320.662ZM318.386 868.386C331.514 881.514 349.319 888.889 367.884 888.889H632.116C650.681 888.889 668.486 881.514 681.614 868.386L868.386 681.614C881.514 668.486 888.889 650.681 888.889 632.116V367.884C888.889 349.319 881.514 331.514 868.386 318.386L681.614 131.614C668.486 118.486 650.681 111.111 632.116 111.111H367.884C349.319 111.111 331.514 118.486 318.386 131.614L131.614 318.386C118.486 331.514 111.111 349.319 111.111 367.884V632.116C111.111 650.681 118.486 668.486 131.614 681.614L318.386 868.386Z" fill="black"/>
</svg>
