<svg width="1153" height="1152" viewBox="0 0 1153 1152" fill="none" xmlns="http://www.w3.org/2000/svg">
<path d="M590.634 856.218C582.825 864.018 570.175 864.018 562.366 856.218L299.084 593.239C291.31 585.474 291.256 572.891 298.964 565.06L329.212 534.326C337.001 526.411 349.747 526.358 357.602 534.206L501.185 677.665C513.787 690.256 535.321 681.331 535.321 663.517V20C535.321 8.95429 544.276 0 555.321 0H597.679C608.724 0 617.679 8.95431 617.679 20V663.517C617.679 681.331 639.213 690.256 651.815 677.665L795.335 534.269C803.183 526.428 815.913 526.472 823.706 534.368L853.997 565.059C861.723 572.888 861.678 585.486 853.896 593.259L590.634 856.218ZM133.089 1152C95.15 1152 63.4973 1139.33 38.1313 1113.98C12.7653 1088.64 0.0549048 1056.99 0 1019.03V839.648C0 828.602 8.95431 819.648 20 819.648H62.3571C73.4028 819.648 82.3571 828.602 82.3571 839.648V1019.03C82.3571 1031.7 87.628 1043.33 98.1697 1053.92C108.711 1064.5 120.324 1069.77 133.007 1069.71H1019.99C1032.62 1069.71 1044.23 1064.45 1054.83 1053.92C1065.43 1043.38 1070.7 1031.75 1070.64 1019.03V839.648C1070.64 828.602 1079.6 819.648 1090.64 819.648H1133C1144.05 819.648 1153 828.602 1153 839.648V1019.03C1153 1056.93 1140.32 1088.56 1114.95 1113.9C1089.58 1139.25 1057.9 1151.95 1019.91 1152H133.089Z" fill="white"/>
</svg>
