<svg width="1100" height="1345" viewBox="0 0 1100 1345" fill="none" xmlns="http://www.w3.org/2000/svg">
<path d="M300 0C406.571 0 508.894 41.7874 585.001 116.39C642.415 172.669 719.605 204.192 800 204.192C880.395 204.192 957.585 172.669 1015 116.39C1029.38 102.297 1050.8 98.2014 1069.36 105.998C1087.93 113.795 1100 131.964 1100 152.096V794.979C1100 808.413 1094.59 821.282 1085 830.686C1008.89 905.288 906.571 947.075 800 947.075C693.429 947.075 591.106 905.288 514.999 830.686C457.585 774.407 380.394 742.884 300 742.884C226.412 742.884 155.509 769.295 100 816.928V1295C100 1322.61 77.6142 1345 50 1345C22.3859 1345 0 1322.61 0 1295V152.096C0.000210806 138.662 5.40582 125.793 14.999 116.39C91.1055 41.7873 193.429 8.37722e-05 300 0Z" fill="#FF0000"/>
</svg>
