<svg width="1000" height="1286" viewBox="0 0 1000 1286" fill="none" xmlns="http://www.w3.org/2000/svg">
<path d="M30 1286C13.4314 1286 0 1272.57 0 1256V1244.56C0 1227.99 13.4315 1214.56 30 1214.56H970C986.569 1214.56 1000 1227.99 1000 1244.56V1256C1000 1272.57 986.569 1286 970 1286H30ZM522.536 985.014C510.517 1000.88 486.658 1000.86 474.67 984.966L133.897 533.173C118.988 513.406 133.089 485.108 157.848 485.108H301.143C317.711 485.108 331.143 471.676 331.143 455.108V30C331.143 13.4315 344.574 0 361.143 0H637.643C654.211 0 667.643 13.4315 667.643 30V455.036C667.643 471.605 681.074 485.036 697.643 485.036H840.859C865.646 485.036 879.739 513.39 864.774 533.149L522.536 985.014ZM474.549 867.534C486.522 883.673 510.667 883.707 522.685 867.602L718.078 605.781C732.844 585.995 718.724 557.838 694.035 557.838H626.143C609.574 557.838 596.143 544.407 596.143 527.838V101.444C596.143 84.8759 582.711 71.4444 566.143 71.4444H432.5C415.931 71.4444 402.5 84.8759 402.5 101.444V527.838C402.5 544.407 389.069 557.838 372.5 557.838H304.397C279.748 557.838 265.617 585.917 280.304 605.713L474.549 867.534Z" fill="black"/>
</svg>
