<svg width="1200" height="1089" viewBox="0 0 1200 1089" fill="none" xmlns="http://www.w3.org/2000/svg">
<path d="M850 0C1043.57 0 1200 156.464 1200 350.031C1200 421.908 1178.34 488.987 1140.88 544.561L1140.88 544.562C1140.83 544.637 1140.78 544.712 1140.73 544.788C1140.69 544.839 1140.66 544.89 1140.62 544.94L1140.62 544.939C1124.26 569.242 1084.27 614.913 1041.6 662.329C995.975 713.024 939.683 773.941 885.125 832.406C830.502 890.941 777.327 947.328 737.827 989.061C718.071 1009.93 701.721 1027.16 690.305 1039.17C684.596 1045.17 680.12 1049.87 677.067 1053.08C675.541 1054.68 674.369 1055.91 673.578 1056.74C673.183 1057.16 672.883 1057.47 672.68 1057.69C672.579 1057.79 672.501 1057.87 672.449 1057.93C672.423 1057.96 672.403 1057.98 672.39 1057.99C672.383 1058 672.377 1058 672.374 1058.01C672.37 1058.01 672.367 1058.01 600 989L672.367 1058.01C653.496 1077.8 627.344 1089 600 1089C572.656 1089 546.504 1077.8 527.633 1058.01L600 989C527.633 1058.01 527.63 1058.01 527.626 1058.01C527.623 1058 527.617 1058 527.61 1057.99C527.597 1057.98 527.577 1057.96 527.551 1057.93C527.499 1057.87 527.422 1057.79 527.32 1057.69C527.118 1057.47 526.817 1057.16 526.422 1056.74C525.631 1055.91 524.46 1054.68 522.934 1053.08C519.881 1049.87 515.404 1045.17 509.695 1039.17C498.279 1027.16 481.93 1009.93 462.174 989.061C422.674 947.328 369.498 890.941 314.875 832.406C288.081 803.693 260.869 774.388 234.708 745.993L230.503 741.799L230.143 741.035C204.685 713.378 180.313 686.675 158.402 662.329C115.731 614.913 75.7401 569.242 59.376 544.939L59.375 544.94C59.3409 544.89 59.3075 544.839 59.2734 544.788C59.2224 544.712 59.1707 544.637 59.1201 544.562L59.1211 544.561C21.6623 488.987 0 421.908 0 350.031C0 156.464 156.426 0 350 0C452.744 0 537.988 45.5974 600 107.686C662.012 45.5974 747.256 0 850 0ZM600 989C600 989 600.593 988.375 601.739 987.172C600.348 986.967 598.975 986.742 597.621 986.5C599.185 988.142 600 989 600 989Z" fill="#FF0077"/>
</svg>
