<svg width="1000" height="1111" viewBox="0 0 1000 1111" fill="none" xmlns="http://www.w3.org/2000/svg">
<path d="M833.333 1111C787.037 1111 747.685 1094.8 715.278 1062.39C682.87 1029.99 666.667 990.642 666.667 944.35C666.667 938.795 668.056 925.833 670.833 905.465L280.556 677.71C265.741 691.597 248.611 702.485 229.167 710.373C209.722 718.261 188.889 722.187 166.667 722.15C120.37 722.15 81.0185 705.948 48.6111 673.544C16.2037 641.14 0 601.792 0 555.5C0 509.208 16.2037 469.86 48.6111 437.456C81.0185 405.052 120.37 388.85 166.667 388.85C188.889 388.85 209.722 392.794 229.167 400.682C248.611 408.57 265.741 419.44 280.556 433.29L670.833 205.535C668.981 199.054 667.833 192.814 667.389 186.815C666.944 180.815 666.704 174.094 666.667 166.65C666.667 120.358 682.87 81.0104 715.278 48.6062C747.685 16.2021 787.037 0 833.333 0C879.63 0 918.982 16.2021 951.389 48.6062C983.796 81.0104 1000 120.358 1000 166.65C1000 212.942 983.796 252.29 951.389 284.694C918.982 317.098 879.63 333.3 833.333 333.3C811.111 333.3 790.278 329.356 770.833 321.468C751.389 313.58 734.259 302.71 719.444 288.86L329.167 516.615C331.019 523.096 332.185 529.354 332.667 535.391C333.148 541.427 333.37 548.13 333.333 555.5C333.296 562.87 333.074 569.591 332.667 575.665C332.259 581.738 331.093 587.978 329.167 594.385L719.444 822.14C734.259 808.252 751.389 797.383 770.833 789.532C790.278 781.681 811.111 777.737 833.333 777.7C879.63 777.7 918.982 793.902 951.389 826.306C983.796 858.71 1000 898.058 1000 944.35C1000 990.642 983.796 1029.99 951.389 1062.39C918.982 1094.8 879.63 1111 833.333 1111Z" fill="black"/>
</svg>
