<svg width="1119" height="1115" viewBox="0 0 1119 1115" fill="none" xmlns="http://www.w3.org/2000/svg">
<path d="M561.529 526.498V1055.5M374.79 868.794L561.529 1055.5L748.268 868.794M312.544 248.679C359.101 255.408 402.229 277.023 435.481 310.292M903.884 682.087C998.437 682.087 1059.5 605.475 1059.5 510.939C1059.5 473.512 1047.22 437.118 1024.56 407.33C1001.89 377.543 970.087 356.005 934.012 346.015C928.461 276.216 899.528 210.327 851.889 159.003C804.251 107.679 740.692 73.9194 671.488 63.1815C602.284 52.4436 531.481 65.3555 470.525 99.8297C409.569 134.304 362.023 188.325 335.575 253.16C279.891 237.727 220.356 245.043 170.067 273.498C119.778 301.952 82.8536 349.216 67.418 404.89C51.9823 460.564 59.2992 520.089 87.7591 570.37C116.219 620.65 163.491 657.568 219.175 673.001" stroke="white" stroke-width="119" stroke-linecap="round" stroke-linejoin="round"/>
</svg>
