<?xml version="1.0" encoding="UTF-8" standalone="no"?><!DOCTYPE svg PUBLIC "-//W3C//DTD SVG 1.1//EN" "http://www.w3.org/Graphics/SVG/1.1/DTD/svg11.dtd"><svg width="100%" height="100%" viewBox="0 0 1000 1000" version="1.1" xmlns="http://www.w3.org/2000/svg" xmlns:xlink="http://www.w3.org/1999/xlink" xml:space="preserve" xmlns:serif="http://www.serif.com/" style="fill-rule:evenodd;clip-rule:evenodd;stroke-miterlimit:1.5;"><rect x="0" y="0" width="1000" height="1000"/><path d="M1125,1125l-1250,0l-0,-1250l1250,-0l0,1250Zm-125,-1125l-1000,0l0,1000l1000,0l0,-1000Z" style="fill:#fff;"/><path d="M226.382,832.01c36.385,39.172 102.512,117.14 210.554,74.283c77.113,-30.588 258.251,-187.102 91.343,-406.21c-97.372,-127.825 -339.377,-216.879 -314.682,-407.168" style="fill:none;stroke:#fff;stroke-width:125px;"/><path d="M518.353,488.944c24.433,-11.749 155.222,-52.626 234.981,-200.326c51.428,-95.237 31.082,-187.953 29.758,-207.41" style="fill:none;stroke:#fff;stroke-width:125px;"/></svg>