<?xml version="1.0" encoding="UTF-8" standalone="no"?><!DOCTYPE svg PUBLIC "-//W3C//DTD SVG 1.1//EN" "http://www.w3.org/Graphics/SVG/1.1/DTD/svg11.dtd"><svg width="100%" height="100%" viewBox="0 0 1000 1000" version="1.1" xmlns="http://www.w3.org/2000/svg" xmlns:xlink="http://www.w3.org/1999/xlink" xml:space="preserve" xmlns:serif="http://www.serif.com/" style="fill-rule:evenodd;clip-rule:evenodd;stroke-miterlimit:1.5;"><path d="M1000,258.824l0,482.353c0,142.849 -115.975,258.824 -258.824,258.824l-482.353,0c-142.849,0 -258.824,-115.975 -258.824,-258.824l0,-482.353c0,-142.849 115.975,-258.824 258.824,-258.824l482.353,0c142.849,0 258.824,115.975 258.824,258.824Z"/><path d="M256.964,794.901c32.318,34.794 91.055,104.047 187.02,65.981c68.494,-27.169 229.386,-166.19 81.134,-360.808c-86.489,-113.538 -301.445,-192.639 -279.51,-361.659" style="fill:none;stroke:#fff;stroke-width:125px;"/><path d="M516.302,490.18c21.702,-10.436 137.873,-46.744 208.717,-177.935c45.68,-84.592 27.608,-166.945 26.432,-184.228" style="fill:none;stroke:#fff;stroke-width:125px;"/></svg>