<?xml version="1.0" encoding="UTF-8"?>
<svg version="1.1" xmlns="http://www.w3.org/2000/svg" width="1242" height="1227">
<path d="M0 0 C2.32496332 0.00564307 4.64991934 0.00846185 6.97488785 0.0110817 C29.41210721 0.04783368 51.63174368 0.45299893 73.91492081 3.31805801 C75.35921122 3.49713646 76.8035487 3.67583573 78.24792862 3.85419083 C150.97260836 12.94726037 221.50404122 33.60493225 286.75183487 67.20770645 C289.2042688 68.46658563 291.66539781 69.70775595 294.12585831 70.95087051 C329.18840537 88.80415323 362.28256147 110.63579948 392.91492081 135.31805801 C394.3090419 136.4376088 394.3090419 136.4376088 395.73132706 137.57977676 C407.23177411 146.90401113 418.37990099 156.59079825 429.18933487 166.70575333 C431.04907891 168.44340891 432.91518335 170.1740586 434.78210831 171.90399551 C451.45049706 187.36811017 451.45049706 187.36811017 458.74304581 195.86493301 C461.0911529 198.51711153 463.50908266 201.09264786 465.93982315 203.66888809 C471.34771452 209.40290857 476.60612884 215.17166513 481.52429581 221.33758926 C483.36388179 223.63106003 485.22632066 225.89240411 487.11804581 228.14227676 C494.97005634 237.50454261 502.30950438 247.11753806 509.34900284 257.10370255 C510.87828153 259.26624663 512.42340491 261.41650547 513.97351456 263.56415176 C532.73152374 289.65577665 548.51285766 317.62702555 562.91492081 346.31805801 C563.40589249 347.29065567 563.89686417 348.26325333 564.40271378 349.26532364 C572.57710065 365.55202059 579.39987825 382.3172937 585.91492081 399.31805801 C586.32484268 400.38250137 586.73476456 401.44694473 587.15710831 402.54364395 C603.73919434 445.96033062 614.32325504 491.69217717 620.16492081 537.75555801 C620.31598282 538.93617813 620.46704483 540.11679825 620.62268448 541.33319473 C621.1017361 545.32394061 621.52450824 549.31787808 621.91492081 553.31805801 C622.0457254 554.63959381 622.0457254 554.63959381 622.17917252 555.9878273 C623.93695135 574.32861501 624.27904221 592.59350776 624.23297882 610.99927902 C624.22733414 613.29074041 624.22451647 615.58219439 624.22189713 617.87366104 C624.18542319 639.82310391 623.77383427 661.52229902 620.91492081 683.31805801 C620.73542199 684.75334381 620.55673954 686.1887319 620.37878799 687.62421036 C615.35604344 727.75153894 606.46934776 766.86945311 593.91492081 805.31805801 C593.56203995 806.40796036 593.20915909 807.4978627 592.84558487 808.62079239 C577.81830354 854.69698584 556.30761222 899.68007052 529.91492081 940.31805801 C529.3491835 941.1901088 528.7834462 942.06215958 528.20056534 942.96063614 C516.88117447 960.32650777 504.92226392 977.17506171 491.91492081 993.31805801 C490.79537003 994.71217911 490.79537003 994.71217911 489.65320206 996.13446426 C480.32896769 1007.63491132 470.64218057 1018.7830382 460.52722549 1029.59247208 C458.78956991 1031.45221612 457.05892022 1033.31832056 455.32898331 1035.18524551 C439.86486865 1051.85363427 439.86486865 1051.85363427 431.36804581 1059.14618301 C428.71586729 1061.49429011 426.14033096 1063.91221986 423.56409073 1066.34296036 C417.83007025 1071.75085173 412.06131369 1077.00926605 405.89538956 1081.92743301 C403.60191879 1083.767019 401.34057471 1085.62945786 399.09070206 1087.52118301 C389.72843621 1095.37319355 380.11544076 1102.71264159 370.12927628 1109.75214005 C367.96673219 1111.28141874 365.81647335 1112.82654212 363.66882706 1114.37665176 C353.35039114 1121.79434187 342.75655068 1128.69074264 331.91492081 1135.31805801 C330.66098526 1136.08521133 330.66098526 1136.08521133 329.38171768 1136.8678627 C253.90627103 1182.78829177 169.63110439 1212.43495061 79.91492081 1223.56805801 C78.69023087 1223.71920059 77.46554092 1223.87034317 76.20373917 1224.02606583 C72.11084312 1224.50124186 68.01621466 1224.923158 63.91492081 1225.31805801 C62.58784103 1225.44886261 62.58784103 1225.44886261 61.23395157 1225.58230972 C42.76244303 1227.35244891 24.36677805 1227.68182175 5.82984161 1227.63611603 C3.50487829 1227.63047296 1.17992227 1227.62765417 -1.14504623 1227.62503433 C-23.58226559 1227.58828235 -45.80190206 1227.1831171 -68.08507919 1224.31805801 C-69.52936961 1224.13897957 -70.97370708 1223.96028029 -72.41808701 1223.7819252 C-145.14276674 1214.68885565 -215.6741996 1194.03118378 -280.92199326 1160.42840958 C-283.37442718 1159.1695304 -285.83555619 1157.92836008 -288.29601669 1156.68524551 C-323.35856376 1138.8319628 -356.45271985 1117.00031655 -387.08507919 1092.31805801 C-388.47920029 1091.19850723 -388.47920029 1091.19850723 -389.90148544 1090.05633926 C-401.4019325 1080.7321049 -412.55005938 1071.04531778 -423.35949326 1060.9303627 C-425.2192373 1059.19270712 -427.08534174 1057.46205742 -428.95226669 1055.73212051 C-445.62065545 1040.26800586 -445.62065545 1040.26800586 -452.91320419 1031.77118301 C-455.26131128 1029.1190045 -457.67924104 1026.54346817 -460.10998154 1023.96722794 C-465.51787291 1018.23320746 -470.77628723 1012.4644509 -475.69445419 1006.29852676 C-477.53404018 1004.005056 -479.39647904 1001.74371191 -481.28820419 999.49383926 C-489.14021473 990.13157342 -496.47966277 980.51857796 -503.51916122 970.53241348 C-505.04843992 968.36986939 -506.5935633 966.21961055 -508.14367294 964.07196426 C-526.90168212 937.98033937 -542.68301605 910.00909048 -557.08507919 881.31805801 C-557.57605087 880.34546036 -558.06702255 879.3728627 -558.57287216 878.37079239 C-566.74725904 862.08409544 -573.57003663 845.31882233 -580.08507919 828.31805801 C-580.49500107 827.25361465 -580.90492294 826.1891713 -581.32726669 825.09247208 C-597.90935273 781.6757854 -608.49341343 735.94393886 -614.33507919 689.88055801 C-614.4861412 688.6999379 -614.63720322 687.51931778 -614.79284286 686.3029213 C-615.27189449 682.31217542 -615.69466663 678.31823795 -616.08507919 674.31805801 C-616.21588379 672.99652222 -616.21588379 672.99652222 -616.3493309 671.64828873 C-618.10710974 653.30750102 -618.4492006 635.04260827 -618.40313721 616.63683701 C-618.39749253 614.34537562 -618.39467486 612.05392164 -618.39205551 609.76245499 C-618.35558158 587.81301212 -617.94399265 566.113817 -615.08507919 544.31805801 C-614.90558038 542.88277221 -614.72689793 541.44738413 -614.54894638 540.01190567 C-609.52620182 499.88457709 -600.63950614 460.76666291 -588.08507919 422.31805801 C-587.73219833 421.22815567 -587.37931747 420.13825333 -587.01574326 419.01532364 C-571.98846193 372.93913018 -550.4777706 327.9560455 -524.08507919 287.31805801 C-523.51934189 286.44600723 -522.95360458 285.57395645 -522.37072372 284.67547989 C-511.05133285 267.30960826 -499.09242231 250.46105432 -486.08507919 234.31805801 C-485.33871201 233.38864395 -484.59234482 232.45922989 -483.82336044 231.50165176 C-474.49912608 220.00120471 -464.81233896 208.85307783 -454.69738388 198.04364395 C-452.9597283 196.18389991 -451.2290786 194.31779547 -449.49914169 192.45087051 C-434.03502704 175.78248176 -434.03502704 175.78248176 -425.53820419 168.48993301 C-422.88602568 166.14182592 -420.31048935 163.72389616 -417.73424911 161.29315567 C-412.00022864 155.8852643 -406.23147208 150.62684998 -400.06554794 145.70868301 C-397.77207718 143.86909703 -395.51073309 142.00665817 -393.26086044 140.11493301 C-383.8985946 132.26292248 -374.28559914 124.92347444 -364.29943466 117.88397598 C-362.13689057 116.35469729 -359.98663173 114.80957391 -357.83898544 113.25946426 C-347.52054952 105.84177416 -336.92670906 98.94537339 -326.08507919 92.31805801 C-325.24912216 91.80662247 -324.41316513 91.29518692 -323.55187607 90.76825333 C-248.07642942 44.84782426 -163.80126277 15.20116542 -74.08507919 4.06805801 C-72.24804428 3.84134415 -72.24804428 3.84134415 -70.37389755 3.6100502 C-66.28100151 3.13487417 -62.18637305 2.71295802 -58.08507919 2.31805801 C-56.75799942 2.18725342 -56.75799942 2.18725342 -55.40410995 2.0538063 C-36.93260142 0.28366712 -18.53693644 -0.04570573 0 0 Z M-262.08507919 190.31805801 C-262.93199326 190.83319962 -263.77890732 191.34834122 -264.65148544 191.87909317 C-275.78302223 198.66210121 -286.4586925 205.95692702 -296.92834091 213.71991348 C-299.0382275 215.28334088 -301.15664853 216.83456705 -303.27648544 218.38446426 C-314.94774448 226.96901725 -325.86606915 236.3002605 -336.57946396 246.0475502 C-338.15987906 247.47967145 -339.74691889 248.90454717 -341.34313583 250.31903458 C-347.37658031 255.67566043 -353.16248884 261.23950625 -358.8543663 266.95697403 C-360.27845411 268.38645518 -361.70785963 269.81046312 -363.13781357 271.23407364 C-368.33062542 276.43412286 -373.32341719 281.72205843 -378.08507919 287.31805801 C-379.03419373 288.40132302 -379.98466137 289.48340436 -380.93664169 290.56415176 C-388.11758682 298.79674797 -394.84677113 307.31423066 -401.3922081 316.05878067 C-403.11914563 318.36352251 -404.85801253 320.65896538 -406.59679794 322.95477676 C-414.70214976 333.72621596 -422.11074017 344.78526984 -429.08507919 356.31805801 C-429.62068466 357.19462051 -430.15629013 358.07118301 -430.70812607 358.97430801 C-478.35623598 437.25731707 -504.07037912 529.54305664 -502.08507919 621.31805801 C-502.07251083 622.12388321 -502.05994247 622.9297084 -502.04699326 623.75995255 C-500.71492088 698.55989429 -481.3670891 770.56743063 -448.08507919 837.31805801 C-447.39478622 838.70468643 -447.39478622 838.70468643 -446.69054794 840.11932755 C-439.8981434 853.66254049 -432.2775965 866.57724261 -424.08507919 879.31805801 C-423.69191513 879.93004044 -423.29875107 880.54202286 -422.89367294 881.1725502 C-412.02375704 897.98883154 -399.88861896 913.93662434 -387.08507919 929.31805801 C-386.25492294 930.32352676 -385.42476669 931.32899551 -384.56945419 932.36493301 C-374.24737314 944.78703687 -363.10438811 956.37969488 -351.71007919 967.81805801 C-350.87806992 968.65474014 -350.04606064 969.49142227 -349.18883896 970.3534584 C-344.31431601 975.21529871 -339.31383791 979.84186224 -334.08507919 984.31805801 C-332.88182412 985.37502362 -331.67997583 986.43359307 -330.47961044 987.49383926 C-323.15982842 993.91936299 -315.74279182 1000.11784869 -307.9312706 1005.94012833 C-306.61533082 1006.92229761 -305.30287299 1007.90913939 -303.99279404 1008.8991127 C-236.50965089 1059.89029957 -157.68691329 1092.62498414 73.63367081 1106.57196426 C142.29919471 1096.71794581 208.76862865 1073.71661632 267.91492081 1037.31805801 C268.76183487 1036.80291641 269.60874893 1036.28777481 270.48132706 1035.75702286 C281.61286384 1028.97401482 292.28853411 1021.67918901 302.75818253 1013.91620255 C304.86806911 1012.35277515 306.98649014 1010.80154898 309.10632706 1009.25165176 C320.7775861 1000.66709878 331.69591076 991.33585553 342.40930557 981.58856583 C343.98972067 980.15644457 345.5767605 978.73156886 347.17297745 977.31708145 C353.20642192 971.96045559 358.99233045 966.39660978 364.68420792 960.679142 C366.10829572 959.24966085 367.53770124 957.8256529 368.96765518 956.40204239 C374.16046703 951.20199317 379.1532588 945.9140576 383.91492081 940.31805801 C384.86403535 939.23479301 385.81450298 938.15271167 386.76648331 937.07196426 C393.94742844 928.83936805 400.67661274 920.32188536 407.22204971 911.57733536 C408.94898724 909.27259352 410.68785415 906.97715065 412.42663956 904.68133926 C420.53199138 893.90990007 427.94058178 882.85084619 434.91492081 871.31805801 C435.45052628 870.44149551 435.98613174 869.56493301 436.53796768 868.66180801 C484.1860776 790.37879896 509.90022074 698.09305939 507.91492081 606.31805801 C507.89606827 605.10932022 507.89606827 605.10932022 507.87683487 603.87616348 C506.54476249 529.07622174 487.19693071 457.0686854 453.91492081 390.31805801 C453.45472549 389.39363907 452.99453018 388.46922012 452.52038956 387.51678848 C445.72798501 373.97357553 438.10743811 361.05887342 429.91492081 348.31805801 C429.52175674 347.70607559 429.12859268 347.09409317 428.72351456 346.46356583 C417.85359865 329.64728449 405.71846057 313.69949169 392.91492081 298.31805801 C392.08476456 297.31258926 391.25460831 296.30712051 390.39929581 295.27118301 C380.07721475 282.84907916 368.93422973 271.25642115 357.53992081 259.81805801 C356.70791153 258.98137589 355.87590225 258.14469376 355.01868057 257.28265762 C350.14415763 252.42081732 345.14367952 247.79425378 339.91492081 243.31805801 C338.71166574 242.26109241 337.50981744 241.20252296 336.30945206 240.14227676 C328.98967004 233.71675304 321.57263344 227.51826734 313.76111221 221.6959877 C312.44517243 220.71381842 311.1327146 219.72697664 309.82263565 218.73700333 C242.3394925 167.74581646 163.5167549 135.01113189 -262.08507919 190.31805801 Z " fill="#4C4C4C" transform="translate(618.0850791931152,-0.3180580139160156)"/>
<path d="M0 0 C11.28418919 7.76743646 18.41133858 16.9620939 21.4453125 30.484375 C23.17094952 42.64187632 20.66086636 55.61062814 19.1859436 67.71192932 C18.99301874 69.31940471 18.80043957 70.92692162 18.60817182 72.53447574 C18.08392275 76.90920482 17.55475766 81.28332669 17.0247035 85.65735567 C16.45192516 90.39121104 15.88375721 95.12562017 15.31495667 99.85995483 C14.20195246 109.11742636 13.08458522 118.37436613 11.9655204 127.6311068 C11.05566405 135.15765258 10.14719499 142.68436456 9.2396965 150.21119499 C8.97769318 152.38417577 8.71568971 154.55715654 8.45368612 156.73013729 C8.32325896 157.81186464 8.19283179 158.89359199 8.05845229 160.00809895 C5.59542591 180.43392838 3.12712709 200.85911814 0.6572638 221.2841218 C-1.59989702 239.95159112 -3.85016369 258.61988398 -6.0972188 277.2885722 C-8.40775503 296.48409882 -10.72309117 315.67904102 -13.04354346 334.87337154 C-14.34494243 345.63903291 -15.64443463 356.40491616 -16.93885422 367.17141914 C-18.04051845 376.33424847 -19.14670713 385.49651782 -20.25867675 394.65810246 C-20.825326 399.32779719 -21.38993554 403.99771368 -21.94888496 408.66833687 C-22.46153982 412.95165622 -22.98024566 417.2341996 -23.50359149 421.51622545 C-23.69091688 423.05746781 -23.87611088 424.59897121 -24.05883996 426.14076526 C-27.14890378 452.1784046 -27.14890378 452.1784046 -31.9921875 460.984375 C-32.75208984 462.43070313 -32.75208984 462.43070313 -33.52734375 463.90625 C-39.75858008 473.32413491 -48.40811467 479.22757648 -58.2421875 484.359375 C-59.42433185 484.99367875 -60.60546032 485.62987889 -61.78564453 486.26782227 C-64.25125613 487.59835878 -66.7212397 488.92018872 -69.19482422 490.23583984 C-74.66466578 493.15262578 -80.08049218 496.16691116 -85.5015564 499.17303467 C-88.53481114 500.85329916 -91.57223324 502.52599373 -94.609375 504.19921875 C-95.830422 504.87219978 -97.05145065 505.54521409 -98.27246094 506.21826172 C-98.87650757 506.55122253 -99.4805542 506.88418335 -100.10290527 507.22723389 C-104.94237947 509.89533157 -109.78069428 512.56553166 -114.61920166 515.23538208 C-117.63930479 516.90181966 -120.65950085 518.56808879 -123.6796875 520.234375 C-124.88802128 520.90104086 -126.09635461 521.56770753 -127.3046875 522.234375 C-187.1171875 555.234375 -246.9296875 588.234375 -339.36697388 639.23425293 C-340.57602403 639.90131789 -341.78506944 640.56839147 -342.99411011 641.23547363 C-346.00393724 642.8961168 -349.01384522 644.5566131 -352.02392578 646.21679688 C-358.88576395 650.00162716 -365.74528452 653.79060926 -372.60263062 657.58357239 C-378.02670334 660.58283105 -383.45715459 663.57040137 -388.88867188 666.55615234 C-391.4976269 667.99593694 -394.09821605 669.44914699 -396.6953125 670.91015625 C-409.31435652 677.94908069 -421.14189981 681.59932267 -435.5546875 678.046875 C-448.75042262 673.97787311 -457.9929625 667.24885155 -464.9296875 655.234375 C-470.80767384 641.98670791 -470.26000632 630.41671685 -468.50965881 616.27418518 C-468.35675036 614.99957096 -468.20384191 613.72495673 -468.04629987 612.41171783 C-467.62434665 608.89573843 -467.1950276 605.38069288 -466.76444232 601.86576164 C-466.29980926 598.06199156 -465.84210848 594.25738653 -465.38354492 590.45288086 C-464.58695811 583.85184096 -463.7860223 577.2513405 -462.98213387 570.65118599 C-461.80993801 561.0269718 -460.64451478 551.4019466 -459.4806587 541.77672075 C-457.5788948 526.05037258 -455.67186783 510.32466731 -453.76147461 494.59936523 C-451.92888354 479.51438266 -450.0984303 464.42914364 -448.27124023 449.34350586 C-448.15983604 448.42373876 -448.04843184 447.50397166 -447.93365175 446.55633283 C-447.26185913 441.00975308 -446.59015836 435.4631622 -445.91848798 429.91656764 C-444.92058316 421.67604865 -443.92254629 413.43554566 -442.92442322 405.1950531 C-442.81604045 404.30022563 -442.70765768 403.40539815 -442.59599059 402.4834547 C-441.13078652 390.38690159 -439.66398581 378.29054322 -438.19565585 366.19436916 C-437.89623324 363.72742396 -437.59691065 361.26046664 -437.29762346 358.79350501 C-437.09981226 357.16304618 -436.90199929 355.53258757 -436.70418453 353.90212917 C-436.60682505 353.09964525 -436.50946556 352.29716133 -436.40915579 351.47035972 C-435.82926789 346.69156347 -435.24843903 341.91288267 -434.66693341 337.13428302 C-432.6665446 320.69214467 -430.68925983 304.24766551 -428.75940505 287.79708634 C-428.14757286 282.58788822 -427.53192495 277.37913919 -426.91644694 272.17037074 C-426.33358129 267.23251436 -425.75763928 262.29391563 -425.18709311 257.3546215 C-424.83383849 254.310463 -424.47410454 251.2670945 -424.11269732 248.22389419 C-423.9481183 246.82657713 -423.78620979 245.42894221 -423.62733774 244.03096478 C-421.61473678 226.34796468 -418.07309089 209.3265942 -403.9296875 197.234375 C-398.55519765 193.42198281 -392.71988131 190.35731154 -386.9296875 187.234375 C-384.99460658 186.17872461 -383.0597196 185.12271868 -381.125 184.06640625 C-377.01112394 181.82742953 -372.89063929 179.60119546 -368.765625 177.3828125 C-363.86278146 174.74355143 -358.98079171 172.0701807 -354.1171875 169.359375 C-353.06120361 168.7708374 -353.06120361 168.7708374 -351.98388672 168.17041016 C-350.47606889 167.32940286 -348.96842654 166.48808088 -347.4609375 165.64648438 C-329.20007244 155.45928882 -310.899574 145.34415486 -292.58691406 135.25048828 C-287.13708144 132.2464475 -281.68868066 129.23981153 -276.24017334 126.23336792 C-273.22007021 124.56693034 -270.19987415 122.90066121 -267.1796875 121.234375 C-265.97135372 120.56770914 -264.76302039 119.90104247 -263.5546875 119.234375 C-111.3046875 35.234375 -111.3046875 35.234375 -109.49237061 34.23448181 C-108.28342039 33.56747094 -107.07447671 32.90044822 -105.86553955 32.2334137 C-102.85419779 30.57191649 -99.84274466 28.91062181 -96.83105469 27.24975586 C-90.63743319 23.83383937 -84.4459685 20.41408989 -78.2578125 16.98828125 C-71.15559733 13.05723351 -64.04655478 9.138844 -56.9296875 5.234375 C-56.00510742 4.72664551 -55.08052734 4.21891602 -54.12792969 3.69580078 C-51.77473011 2.40834555 -49.41636648 1.13119195 -47.0546875 -0.140625 C-46.41370117 -0.49181396 -45.77271484 -0.84300293 -45.11230469 -1.20483398 C-31.27266741 -8.58084251 -13.41286546 -8.08348692 0 0 Z M-315.40625 270.92578125 C-335.43882524 294.57248089 -344.72770062 324.03217654 -342.6875 354.8984375 C-339.60913197 386.24753229 -324.46526038 412.71099579 -300.9296875 433.234375 C-276.11224749 453.3367549 -245.68138693 459.35979166 -214.41308594 457.04833984 C-192.76375957 454.63137321 -170.86358065 443.87569569 -154.9296875 429.234375 C-154.44016602 428.78723145 -153.95064453 428.34008789 -153.44628906 427.87939453 C-137.60699979 413.25039972 -126.7130347 394.95803581 -120.9296875 374.234375 C-120.61 373.15929687 -120.2903125 372.08421875 -119.9609375 370.9765625 C-114.02998759 347.30767907 -117.12266313 321.35050913 -126.9296875 299.234375 C-127.35894531 298.25339844 -127.78820312 297.27242187 -128.23046875 296.26171875 C-141.07899964 268.79119777 -164.74795421 248.4409361 -193.05419922 238.13110352 C-199.55242076 235.89428656 -206.15536698 234.38198429 -212.9296875 233.234375 C-214.07244141 233.03714844 -214.07244141 233.03714844 -215.23828125 232.8359375 C-253.08492144 227.5417005 -289.9312958 243.24085469 -315.40625 270.92578125 Z " fill="#4C4C4C" transform="translate(844.9296875,277.765625)"/>
</svg>
