<?xml version="1.0" encoding="UTF-8"?>
<svg version="1.1" xmlns="http://www.w3.org/2000/svg" width="336" height="391">
<path d="M0 0 C0.95567871 0.45149414 0.95567871 0.45149414 1.93066406 0.91210938 C10.19885113 4.84851373 17.61147784 9.65598615 25 15.0625 C25.78947021 15.64016113 26.57894043 16.21782227 27.39233398 16.81298828 C32.34118845 20.52633999 36.73597829 24.52317129 41 29 C42.2065625 30.2065625 42.2065625 30.2065625 43.4375 31.4375 C44.283125 32.283125 45.12875 33.12875 46 34 C46.54914063 34.49113281 47.09828125 34.98226562 47.6640625 35.48828125 C70.29991362 56.49397849 82.71793014 88.025511 87 118 C87 128.89 87 139.78 87 151 C-23.88 151 -134.76 151 -249 151 C-249 111.99061033 -249 111.99061033 -245 98 C-244.80696289 97.27458008 -244.61392578 96.54916016 -244.41503906 95.80175781 C-238.43413602 73.67536282 -226.55152156 53.94890572 -211.04296875 37.25390625 C-209.62750272 35.69229267 -208.27075467 34.07619593 -206.96484375 32.421875 C-204.02916071 28.80333924 -200.5674663 25.97805882 -197 23 C-196.26910156 22.38125 -195.53820312 21.7625 -194.78515625 21.125 C-174.09732833 4.05151806 -150.06094775 -7.69653079 -124 -14 C-123.10152344 -14.22155762 -122.20304687 -14.44311523 -121.27734375 -14.67138672 C-80.80351391 -24.17108959 -37.09226736 -18.01274653 0 0 Z M-189 46 C-189.73734375 46.67289063 -190.4746875 47.34578125 -191.234375 48.0390625 C-210.36877583 66.15567605 -223.97666283 92.79774457 -227 119 C-227 122.63 -227 126.26 -227 130 C-130.64 130 -34.28 130 65 130 C65 122.79139526 64.99117279 117.09127463 63.375 110.3125 C63.19678711 109.54703857 63.01857422 108.78157715 62.83496094 107.99291992 C57.13906881 84.62385996 45.48262945 65.43570667 29 48 C27.86304688 46.76636719 27.86304688 46.76636719 26.703125 45.5078125 C-0.3724431 17.10501067 -40.61969233 4.11184716 -78.97265625 3.04296875 C-120.44868744 2.42491541 -158.95709983 17.64825646 -189 46 Z " fill="#4C4C4C" transform="translate(249,240)"/>
<path d="M0 0 C1.25296875 0.4125 2.5059375 0.825 3.796875 1.25 C28.74462541 10.06760046 48.21993996 28.50355897 60.08447266 52.01074219 C70.70512729 75.08730057 73.09510894 102.81586203 65 127 C64.5875 128.25296875 64.175 129.5059375 63.75 130.796875 C54.93239954 155.74462541 36.49644103 175.21993996 12.98925781 187.08447266 C-10.08730057 197.70512729 -37.81586203 200.09510894 -62 192 C-63.87945312 191.38125 -63.87945312 191.38125 -65.796875 190.75 C-90.74462541 181.93239954 -110.21993996 163.49644103 -122.08447266 139.98925781 C-132.70512729 116.91269943 -135.09510894 89.18413797 -127 65 C-126.5875 63.74703125 -126.175 62.4940625 -125.75 61.203125 C-116.93239954 36.25537459 -98.49644103 16.78006004 -74.98925781 4.91552734 C-51.91269943 -5.70512729 -24.18413797 -8.09510894 0 0 Z M-88.33984375 40.2734375 C-103.80889281 56.61509959 -111.07348222 76.75063408 -111 99 C-109.78478044 121.12149689 -100.35435627 140.4397477 -84.3125 155.625 C-67.20199968 170.43317 -46.55222434 177.01914559 -24.16015625 175.7890625 C-2.34775901 173.36291968 16.46973129 163.35763381 30.8359375 146.7578125 C44.8203967 128.93646197 50.87020958 107.8708465 48.375 85.4375 C44.95701202 63.9336021 34.15610867 45.46244221 17 32 C-16.31322908 8.51968332 -58.96531056 11.7325722 -88.33984375 40.2734375 Z " fill="#4C4C4C" transform="translate(199,4)"/>
</svg>
