<svg width="1000" height="897" viewBox="0 0 1000 897" fill="none" xmlns="http://www.w3.org/2000/svg">
<path d="M849.642 298.608C818.708 298.695 788.558 308.345 763.325 326.235C738.093 344.125 719.013 369.38 708.701 398.536H49.9789C36.7237 398.536 24.0114 403.8 14.6385 413.17C5.26562 422.54 0 435.249 0 448.5C0 461.751 5.26562 474.46 14.6385 483.83C24.0114 493.2 36.7237 498.464 49.9789 498.464H708.701C717.87 524.389 733.996 547.293 755.314 564.67C776.632 582.046 802.321 593.226 829.569 596.984C856.817 600.743 884.574 596.936 909.802 585.98C935.031 575.024 956.759 557.342 972.608 534.867C988.457 512.393 997.816 485.994 999.662 458.558C1001.51 431.122 995.769 403.707 983.073 379.314C970.377 354.92 951.213 334.488 927.679 320.254C904.145 306.019 877.148 298.531 849.642 298.608ZM849.642 498.464C839.757 498.464 830.094 495.534 821.875 490.043C813.656 484.553 807.25 476.75 803.468 467.62C799.685 458.491 798.695 448.445 800.623 438.753C802.552 429.06 807.312 420.158 814.302 413.17C821.291 406.183 830.197 401.424 839.892 399.496C849.587 397.568 859.636 398.558 868.768 402.339C877.901 406.121 885.706 412.525 891.198 420.742C896.69 428.958 899.621 438.618 899.621 448.5C899.621 461.751 894.355 474.46 884.983 483.83C875.61 493.2 862.897 498.464 849.642 498.464ZM49.9789 198.68H108.954C119.46 227.617 138.623 252.618 163.839 270.287C189.055 287.955 219.102 297.433 249.895 297.433C280.688 297.433 310.734 287.955 335.95 270.287C361.166 252.618 380.33 227.617 390.835 198.68H949.6C962.855 198.68 975.568 193.416 984.94 184.046C994.313 174.676 999.579 161.968 999.579 148.716C999.579 135.465 994.313 122.757 984.94 113.387C975.568 104.017 962.855 98.7525 949.6 98.7525H390.835C380.33 69.8158 361.166 44.8145 335.95 27.1463C310.734 9.47814 280.688 0 249.895 0C219.102 0 189.055 9.47814 163.839 27.1463C138.623 44.8145 119.46 69.8158 108.954 98.7525H49.9789C36.7237 98.7525 24.0114 104.017 14.6385 113.387C5.26562 122.757 0 135.465 0 148.716C0 161.968 5.26562 174.676 14.6385 184.046C24.0114 193.416 36.7237 198.68 49.9789 198.68ZM249.895 98.7525C259.78 98.7525 269.443 101.683 277.662 107.173C285.881 112.663 292.286 120.466 296.069 129.596C299.852 138.726 300.842 148.772 298.913 158.464C296.985 168.156 292.225 177.059 285.235 184.046C278.245 191.034 269.34 195.792 259.645 197.72C249.95 199.648 239.901 198.659 230.769 194.877C221.636 191.095 213.831 184.691 208.339 176.475C202.847 168.258 199.916 158.598 199.916 148.716C199.916 135.465 205.181 122.757 214.554 113.387C223.927 104.017 236.639 98.7525 249.895 98.7525ZM949.6 698.32H590.751C580.245 669.383 561.082 644.382 535.866 626.713C510.65 609.045 480.604 599.567 449.811 599.567C419.018 599.567 388.971 609.045 363.755 626.713C338.539 644.382 319.376 669.383 308.87 698.32H49.9789C36.7237 698.32 24.0114 703.584 14.6385 712.954C5.26562 722.324 0 735.032 0 748.284C0 761.535 5.26562 774.243 14.6385 783.613C24.0114 792.983 36.7237 798.247 49.9789 798.247H308.87C319.376 827.184 338.539 852.186 363.755 869.854C388.971 887.522 419.018 897 449.811 897C480.604 897 510.65 887.522 535.866 869.854C561.082 852.186 580.245 827.184 590.751 798.247H949.6C962.855 798.247 975.568 792.983 984.94 783.613C994.313 774.243 999.579 761.535 999.579 748.284C999.579 735.032 994.313 722.324 984.94 712.954C975.568 703.584 962.855 698.32 949.6 698.32ZM449.811 798.247C439.926 798.247 430.263 795.317 422.044 789.827C413.825 784.337 407.419 776.534 403.636 767.404C399.853 758.274 398.863 748.228 400.792 738.536C402.72 728.844 407.48 719.941 414.47 712.954C421.46 705.966 430.365 701.208 440.06 699.28C449.755 697.352 459.804 698.341 468.937 702.123C478.069 705.905 485.875 712.309 491.366 720.525C496.858 728.742 499.789 738.402 499.789 748.284C499.789 761.535 494.524 774.243 485.151 783.613C475.778 792.983 463.066 798.247 449.811 798.247Z" fill="black"/>
</svg>
