<svg width="1105" height="1217" viewBox="0 0 1105 1217" fill="none" xmlns="http://www.w3.org/2000/svg">
<path d="M992.186 288.385C1011.36 299.321 1027.27 315.155 1038.31 334.266C1049.35 353.377 1055.11 375.079 1055 397.148V803.838C1055 849.007 1030.26 890.658 990.344 912.601L613.469 1151.01C594.783 1161.26 573.813 1166.64 552.499 1166.64C531.185 1166.64 510.215 1161.26 491.529 1151.01L114.655 912.601C95.142 901.904 78.8526 886.173 67.4817 867.044C56.1109 847.916 50.0742 826.09 50 803.838V397.092C50 351.923 74.7341 310.328 114.655 288.385L491.529 66.1687C510.766 55.5624 532.375 50 554.342 50C576.309 50 597.918 55.5624 617.154 66.1687L994.029 288.385H992.186Z" stroke="#4D4D4D" stroke-width="100" stroke-linecap="round" stroke-linejoin="round"/>
<path d="M384.999 608.31C384.999 652.733 402.647 695.338 434.059 726.75C465.471 758.162 508.075 775.809 552.499 775.809C596.923 775.809 639.527 758.162 670.939 726.75C702.352 695.338 719.999 652.733 719.999 608.31C719.999 563.886 702.352 521.282 670.939 489.869C639.527 458.457 596.923 440.81 552.499 440.81C508.075 440.81 465.471 458.457 434.059 489.869C402.647 521.282 384.999 563.886 384.999 608.31Z" stroke="#4D4D4D" stroke-width="100" stroke-linecap="round" stroke-linejoin="round"/>
</svg>
