<svg width="1000" height="874" viewBox="0 0 1000 874" fill="none" xmlns="http://www.w3.org/2000/svg">
<path d="M786.938 388.444C798.273 388.444 808.199 392.086 816.716 399.369C825.233 406.652 830.689 415.959 833.086 427.288L840.373 461.277C850.088 465.324 859.188 469.564 867.673 473.999C876.157 478.434 884.869 483.905 893.807 490.411L929.024 479.485C939.549 476.248 949.88 476.653 960.017 480.699C970.153 484.746 978.038 491.22 983.673 500.122L993.389 517.116C999.056 526.827 1001.08 537.348 999.461 548.678C997.842 560.007 992.578 569.313 983.673 576.597L956.956 599.66C958.575 609.371 959.385 619.892 959.385 631.222C959.385 642.551 958.575 653.072 956.956 662.783L983.673 685.847C992.579 693.13 997.842 702.242 999.461 713.184C1001.08 724.125 999.056 734.435 993.389 744.113L982.459 762.321C976.792 771.223 969.1 777.698 959.385 781.744C949.67 785.79 939.549 786.195 929.024 782.958L893.807 772.033C884.901 778.507 876.206 783.962 867.722 788.396C859.237 792.831 850.121 797.087 840.373 801.166L833.086 836.369C830.657 847.699 825.2 856.811 816.716 863.706C808.231 870.601 798.305 874.031 786.938 873.999H767.508C756.173 873.999 746.264 870.358 737.779 863.074C729.295 855.791 723.822 846.485 721.36 835.155L714.074 801.166C704.359 797.12 695.259 792.879 686.774 788.444C678.29 784.01 669.578 778.54 660.64 772.033L625.422 782.958C614.897 786.195 604.582 785.79 594.479 781.744C584.375 777.698 576.473 771.223 570.773 762.321L561.059 745.327C555.391 735.616 553.367 725.096 554.986 713.767C556.606 702.437 561.868 693.13 570.773 685.847L597.49 662.783C595.871 653.072 595.062 642.551 595.062 631.222C595.062 619.892 595.871 609.371 597.49 599.66L570.773 576.597C561.868 569.313 556.606 560.217 554.986 549.309C553.367 538.4 555.391 528.074 561.059 518.33L571.988 500.122C577.656 491.22 585.346 484.746 595.062 480.699C604.777 476.653 614.897 476.248 625.422 479.485L660.64 490.411C669.545 483.937 678.257 478.483 686.774 474.048C695.291 469.613 704.391 465.356 714.074 461.277L721.36 426.074C723.789 414.745 729.246 405.649 737.73 398.786C746.215 391.924 756.141 388.477 767.508 388.444H786.938ZM348.536 0C361.49 0 373.844 2.42773 385.6 7.2832C397.355 12.1387 407.67 19.0172 416.543 27.9189L485.765 97.1104H874.376C901.093 97.1104 923.973 106.627 943.015 125.661C962.057 144.695 971.562 167.549 971.529 194.222V286.478C971.529 301.044 965.263 311.969 952.73 319.252C940.198 326.535 927.033 326.94 913.237 320.466C892.188 310.755 869.923 303.472 846.444 298.616C822.966 293.761 799.487 291.333 776.009 291.333C680.475 291.333 600.13 324.723 534.973 391.503C469.815 458.283 437.221 537.785 437.188 630.008C437.188 645.384 438.209 660.565 440.249 675.553C442.289 690.54 445.316 705.302 449.332 719.836C453.348 734.37 451.324 747.529 443.261 759.312C435.197 771.094 424.267 776.953 410.472 776.889H97.1533C70.4364 776.889 47.573 767.388 28.5635 748.387C9.55391 729.385 0.0324004 706.515 0 679.777V97.1104C8.88535e-05 70.405 9.5216 47.5511 28.5635 28.5498C47.6054 9.54863 70.4688 0.0323702 97.1533 0H348.536Z" fill="white"/>
</svg>
