<svg width="1105" height="1217" viewBox="0 0 1105 1217" fill="none" xmlns="http://www.w3.org/2000/svg">
<path d="M992.186 288.385C1011.36 299.321 1027.27 315.155 1038.31 334.266C1049.35 353.377 1055.11 375.079 1055 397.148V803.838C1055 849.007 1030.26 890.658 990.344 912.601L613.469 1151.01C594.783 1161.26 573.813 1166.64 552.499 1166.64C531.185 1166.64 510.215 1161.26 491.529 1151.01L114.655 912.601C95.142 901.904 78.8526 886.173 67.4817 867.044C56.1109 847.916 50.0742 826.09 50 803.838V397.092C50 351.923 74.7341 310.328 114.655 288.385L491.529 66.1687C510.766 55.5624 532.375 50 554.342 50C576.309 50 597.918 55.5624 617.154 66.1687L994.029 288.385H992.186Z" stroke="white" stroke-width="100" stroke-linecap="round" stroke-linejoin="round"/>
<path d="M384.999 608.31C384.999 652.733 402.647 695.338 434.059 726.75C465.471 758.162 508.075 775.809 552.499 775.809C596.923 775.809 639.527 758.162 670.939 726.75C702.352 695.338 719.999 652.733 719.999 608.31C719.999 563.886 702.352 521.282 670.939 489.869C639.527 458.457 596.923 440.81 552.499 440.81C508.075 440.81 465.471 458.457 434.059 489.869C402.647 521.282 384.999 563.886 384.999 608.31Z" stroke="white" stroke-width="100" stroke-linecap="round" stroke-linejoin="round"/>
<path d="M884.6 545.2C882.488 547.312 877.176 552.624 870.248 561.664C850.936 586.863 861.176 642.096 858.472 692.752C857.171 717.132 852.6 738.16 856.84 755.808C857.849 760.009 862.136 762.736 868.52 764.368C883.994 768.324 899.48 762.832 909.064 755.392C955.061 719.685 924.024 599.728 934.696 571.44C944.796 544.668 934.776 517.552 923.048 496.752C905.491 465.614 880.44 429.04 859.08 414.048C839.427 400.254 823.864 388.464 804.68 376.176C785.464 363.867 762.04 363.888 740.68 359.616C716.535 354.787 693.752 339.376 678.248 326.592C661.174 312.513 665.976 281.84 653.192 258.88C639.946 235.09 588.344 230.576 561.464 227.872C543.034 226.018 525.208 222 511.896 225.696C482.37 233.894 483.576 274.16 471.848 291.808C461.551 307.303 447.352 323.248 429.208 332.912C408.286 344.056 365.432 340.4 337.464 343.584C320.318 345.536 310.776 364.848 298.52 384.592C285.721 405.21 260.664 410.736 245.192 416.64C225.69 424.082 229.688 453.36 225.96 475.28C224.566 483.476 210.488 459.952 201.432 446.016C188.667 426.373 211.512 492.848 216.312 510.464C223.074 535.282 224.312 563.248 225.928 588.304C227.157 607.352 233.912 624.048 233.944 686.816C233.959 716.522 221.176 732.848 221.112 760.56C221.056 784.726 257.336 788.336 273.336 794.784C289.341 801.234 321.144 818.16 351.176 831.024C384.496 845.296 417.272 865.136 436.008 872.64C452.095 879.083 467.448 886.512 491.4 890.256C543.669 898.426 584.568 894 630.52 886.032C711.657 871.963 757.304 881.2 783.224 868.992C792.41 864.665 799.224 856.688 802.456 855.072C820.978 845.811 756.792 882.16 734.264 897.68C715.845 910.369 702.264 922.736 676.712 938.208C650.713 953.951 629.752 954.8 612.136 958.512C583.939 964.454 547.64 968.624 449.784 970.272C415.874 970.843 397.24 955.888 376.936 950.56C368.077 948.235 359.864 938.832 353.432 936.672C330.251 928.887 405.496 961.136 429.576 965.456C461.028 971.099 488.696 975.024 517.032 980.912C543.191 986.348 557.048 1004.85 574.664 1016.62C579.471 1019.84 584.76 1024.05 589.592 1026.22C594.424 1028.4 598.648 1028.4 600.824 1025.76C603 1023.12 603 1017.84 603 1012.4" stroke="white" stroke-width="272" stroke-linecap="round"/>
</svg>
