<svg width="1100" height="1100" viewBox="0 0 1100 1100" fill="none" xmlns="http://www.w3.org/2000/svg">
<path d="M50 925C50 858.696 76.3392 795.107 123.223 748.223C170.107 701.339 233.696 675 300 675H800C866.304 675 929.893 701.339 976.777 748.223C1023.66 795.107 1050 858.696 1050 925C1050 958.152 1036.83 989.946 1013.39 1013.39C989.946 1036.83 958.152 1050 925 1050H175C141.848 1050 110.054 1036.83 86.6116 1013.39C63.1696 989.946 50 958.152 50 925Z" stroke="white" stroke-width="100" stroke-linejoin="round"/>
<path d="M550 425C653.553 425 737.5 341.053 737.5 237.5C737.5 133.947 653.553 50 550 50C446.447 50 362.5 133.947 362.5 237.5C362.5 341.053 446.447 425 550 425Z" stroke="white" stroke-width="100"/>
<path d="M542.892 881.465C501.394 884.547 438.069 883.805 410.219 877.653C400.837 875.581 440.757 859.106 493.029 852.166C575.341 841.239 623.247 847.451 616.319 852.85C602.127 863.909 584.691 869.834 569.596 874.12C560.349 876.746 548.36 873.749 522.653 872.591C470.235 870.229 430.956 870.668 420.553 867.968C390.25 860.106 346.037 866.775 322.866 867.945C280.544 870.082 224.763 866.821 212.355 866.775C207.538 866.757 216.955 877.572 217.731 884.118C219.388 898.096 206.181 908.435 206.134 918.526C206.054 936.101 239.963 890.826 258.997 874.201C283.478 852.82 282.596 831.324 286.06 819.334C287.12 815.666 294.089 814.317 330.489 813.518C366.89 812.719 434.177 813.483 467.693 816.171C501.208 818.859 498.915 823.446 496.586 826.957C487.939 839.991 474.215 852.826 456.073 867.516C443.966 877.319 425.557 879.102 408.956 884.153C388.412 890.403 364.55 898.426 356.799 903.824C336.796 917.757 431.443 906.211 459.015 900.407C477.294 896.559 491.083 888.462 504.221 881.488C512.171 877.268 562.517 876.831 636.222 877.595C698.135 878.238 730.479 882.994 775.962 884.164C800.031 884.784 815.468 877.619 828.605 871.838C845.566 864.375 861.021 861.4 873.035 864.064C878.577 865.293 876.545 875.255 877.692 881.036C878.876 887.003 886.554 889.945 892.718 892.262C895.716 893.39 898.881 893.05 901.986 891.903C905.091 890.756 908.149 888.462 906.666 885.751C896.814 867.741 872.745 873.772 854.603 869.509C840.529 866.202 824.134 861.4 797.152 851.019C760.193 836.8 732.147 828.961 730.954 824.732C724.442 801.654 770.657 808.895 784.582 806.938C793.033 805.749 803.883 805.003 809.71 805.003C827.859 805.003 770.1 812.695 745.354 818.117C701.579 827.708 663.517 811.954 637.983 810.031C631.779 809.563 625.656 809.637 624.799 809.637C605.5 809.637 673.341 816.588 700.3 820.434C731.73 821.222 756.777 821.987 767.181 823.145C772.232 823.539 776.82 823.539 779.229 821.222" stroke="white" stroke-width="247" stroke-linecap="round"/>
<path d="M542.892 246.597C548.268 248.127 562.123 252.761 575.284 249.702C578.404 248.977 581.447 248.914 581.494 248.914C591.509 248.914 556.099 248.127 543.321 247.003C540.007 246.711 538.304 241.268 537.123 237.387C535.941 233.506 535.941 229.683 537.088 226.184C541.598 212.426 552.902 206.466 559.065 202.215C561.803 200.326 565.228 201.786 567.568 203.709C577.963 212.251 588.399 224.91 597.667 235.707C601.342 239.989 600.818 243.446 599.289 246.551C587.261 270.97 551.465 291.363 532.535 291.409C523.875 291.43 519.745 281.376 515.887 276.371C514.323 273.66 513.558 270.602 513.164 265.203C512.771 259.805 512.771 252.158 512.771 244.28" stroke="white" stroke-width="247" stroke-linecap="round"/>
</svg>
