<svg width="1100" height="1100" viewBox="0 0 1100 1100" fill="none" xmlns="http://www.w3.org/2000/svg">
<path d="M50 925C50 858.696 76.3392 795.107 123.223 748.223C170.107 701.339 233.696 675 300 675H800C866.304 675 929.893 701.339 976.777 748.223C1023.66 795.107 1050 858.696 1050 925C1050 958.152 1036.83 989.946 1013.39 1013.39C989.946 1036.83 958.152 1050 925 1050H175C141.848 1050 110.054 1036.83 86.6116 1013.39C63.1696 989.946 50 958.152 50 925Z" stroke="#4D4D4D" stroke-width="100" stroke-linejoin="round"/>
<path d="M550 425C653.553 425 737.5 341.053 737.5 237.5C737.5 133.947 653.553 50 550 50C446.447 50 362.5 133.947 362.5 237.5C362.5 341.053 446.447 425 550 425Z" stroke="#4D4D4D" stroke-width="100"/>
</svg>
