<?xml version="1.0" encoding="UTF-8"?>
<svg version="1.1" xmlns="http://www.w3.org/2000/svg" width="1100" height="1016">
<path d="M0 0 C6.80290252 4.56471814 12.81206399 10.09650621 18.92871094 15.52148438 C22.19175024 18.38049383 25.57486962 21.08995373 28.9453125 23.8203125 C32.05750148 26.36503683 35.12476497 28.95868225 38.1875 31.5625 C42.15649152 34.93538602 46.1476718 38.27426774 50.1875 41.5625 C54.7920358 45.31037798 59.32769191 49.13233444 63.8515625 52.9765625 C67.2680954 55.87494823 70.71254838 58.734051 74.1875 61.5625 C78.22733452 64.8507374 82.21833277 68.18981461 86.1875 71.5625 C91.96292544 76.46795844 97.80742099 81.28278665 103.6875 86.0625 C110.13282718 91.30168408 116.52172912 96.59789575 122.85107422 101.97607422 C126.26770732 104.87469839 129.71236997 107.73390579 133.1875 110.5625 C137.7920358 114.31037798 142.32769191 118.13233444 146.8515625 121.9765625 C150.2680954 124.87494823 153.71254838 127.734051 157.1875 130.5625 C161.7920358 134.31037798 166.32769191 138.13233444 170.8515625 141.9765625 C174.2680954 144.87494823 177.71254838 147.734051 181.1875 150.5625 C185.22733543 153.85073814 189.21830427 157.18984761 193.1875 160.5625 C197.9566121 164.61262599 202.76662432 168.60602113 207.6171875 172.55859375 C217.19611889 180.37041948 226.73979952 188.22222837 236.15576172 196.22998047 C240.35078182 199.79278404 244.60664278 203.27575575 248.875 206.75 C252.56764364 209.78617366 256.20871788 212.8809997 259.8515625 215.9765625 C263.2680954 218.87494823 266.71254838 221.734051 270.1875 224.5625 C274.7920358 228.31037798 279.32769191 232.13233444 283.8515625 235.9765625 C287.2680954 238.87494823 290.71254838 241.734051 294.1875 244.5625 C298.22733543 247.85073814 302.21830427 251.18984761 306.1875 254.5625 C310.9566121 258.61262599 315.76662432 262.60602113 320.6171875 266.55859375 C330.19611889 274.37041948 339.73979952 282.22222837 349.15576172 290.22998047 C353.35078182 293.79278404 357.60664278 297.27575575 361.875 300.75 C365.56764364 303.78617366 369.20871788 306.8809997 372.8515625 309.9765625 C376.2680954 312.87494823 379.71254838 315.734051 383.1875 318.5625 C387.7920358 322.31037798 392.32769191 326.13233444 396.8515625 329.9765625 C400.2680954 332.87494823 403.71254838 335.734051 407.1875 338.5625 C411.22733543 341.85073814 415.21830427 345.18984761 419.1875 348.5625 C423.9566121 352.61262599 428.76662432 356.60602113 433.6171875 360.55859375 C443.19611889 368.37041948 452.73979952 376.22222837 462.15576172 384.22998047 C466.35078182 387.79278404 470.60664278 391.27575575 474.875 394.75 C478.56561043 397.78450191 482.20543367 400.87676558 485.8449707 403.97216797 C489.31993023 406.92208904 492.83203073 409.81914406 496.375 412.6875 C498.14806624 414.1431177 499.9189445 415.60140512 501.6875 417.0625 C502.56535156 417.77921875 503.44320313 418.4959375 504.34765625 419.234375 C514.07589738 427.50998284 521.53047957 438.2159192 522.91974795 451.23972702 C523.29872843 457.54248837 523.22498912 463.85473906 523.19543457 470.16601562 C523.20004769 472.31272046 523.20640336 474.45942214 523.21434355 476.60611725 C523.23100336 482.48474261 523.22280557 488.36310739 523.21039867 494.24173355 C523.20133687 500.58947747 523.21532354 506.93717704 523.22631836 513.28491211 C523.24306931 524.99438206 523.2416288 536.70375958 523.23067249 548.413234 C523.22059995 559.23163426 523.21798826 570.05000421 523.22276306 580.8684082 C523.22322137 581.94590913 523.22322137 581.94590913 523.22368894 583.04517776 C523.22493435 585.96131971 523.22620795 588.87746165 523.227528 591.79360357 C523.23975687 619.13476617 523.22868147 646.47587608 523.20714041 673.81703055 C523.18815877 698.09419442 523.18985731 722.37127436 523.20898438 746.6484375 C523.23041496 773.94041989 523.23888951 801.23235576 523.22653532 828.5243454 C523.2252525 831.43509419 523.22400114 834.34584299 523.22276306 837.2565918 C523.22244675 837.97326297 523.22213044 838.68993414 523.22180455 839.42832261 C523.21725963 850.23844206 523.22256647 861.04852781 523.23268127 871.85864258 C523.24412809 884.15344714 523.24085393 896.44813851 523.2195583 908.74293327 C523.20905262 915.01478573 523.20491811 921.28646793 523.21815491 927.55831909 C523.23009421 933.30230003 523.22349041 939.04595328 523.2022447 944.78990459 C523.19778522 946.86511252 523.20003012 948.94034825 523.20974785 951.01553822 C523.28525147 968.48214109 520.72346173 982.42631874 508.5 995.8125 C495.89248068 1007.5719799 481.97690978 1009.51424222 465.56082344 1009.44281673 C463.81326043 1009.44625253 462.06569961 1009.45100086 460.31814331 1009.4569377 C455.5124577 1009.46944949 450.70694956 1009.46329634 445.90126313 1009.45410402 C440.67430835 1009.44739843 435.44738425 1009.45805824 430.22043598 1009.46649987 C421.05828345 1009.47888114 411.89618212 1009.48007289 402.73402405 1009.47394943 C389.10958555 1009.46486792 375.4851945 1009.47288273 361.86075965 1009.48424067 C336.82144835 1009.50449581 311.78216827 1009.50596587 286.74285282 1009.50059005 C283.19559027 1009.49983433 279.64832772 1009.49910671 276.10106516 1009.49840808 C275.04419522 1009.49819944 275.04419522 1009.49819944 273.96597436 1009.49798659 C258.34908538 1009.49503388 242.73219925 1009.4980475 227.11531079 1009.50230437 C224.97775095 1009.50288652 222.84019112 1009.50345537 220.70263128 1009.50402 C214.97251305 1009.50553496 209.24239483 1009.50706187 203.51227661 1009.50861301 C163.51267562 1009.5193693 123.51307727 1009.52407199 83.51347542 1009.51614285 C82.38256016 1009.51592039 82.38256016 1009.51592039 81.22879813 1009.51569343 C72.82157017 1009.51403444 64.41434224 1009.51228486 56.00711431 1009.51050042 C55.24806857 1009.5103394 54.48902283 1009.51017837 53.7069757 1009.51001247 C47.5469609 1009.50870474 47.5469609 1009.50870474 44.49805401 1009.50805128 C-4.0564868 1009.49765927 -52.61099138 1009.50542743 -101.16552734 1009.52905273 C-113.4005476 1009.53499615 -125.63556787 1009.54088771 -137.8705883 1009.54646206 C-138.6239477 1009.54680583 -139.3773071 1009.5471496 -140.15349557 1009.54750379 C-163.37191334 1009.5580312 -186.59032808 1009.56362516 -209.80874825 1009.5640192 C-210.90215631 1009.56403838 -210.90215631 1009.56403838 -212.01765343 1009.56405794 C-228.01939413 1009.56428623 -244.02113456 1009.56328014 -260.02287511 1009.56114888 C-265.7485047 1009.56039412 -271.47413431 1009.55971591 -277.19976391 1009.55906873 C-278.62414905 1009.55890604 -280.04853419 1009.55873838 -281.47291933 1009.55856572 C-304.16861398 1009.55584458 -326.86428663 1009.56439855 -349.55997655 1009.57841982 C-373.05293472 1009.59282723 -396.54584209 1009.59237506 -420.03880249 1009.5750451 C-433.58481333 1009.56546456 -447.13071688 1009.56695276 -460.67672061 1009.58427979 C-469.72107755 1009.59474283 -478.76535249 1009.59070621 -487.80970132 1009.57479975 C-492.96546405 1009.56614016 -498.12101603 1009.56381114 -503.27676819 1009.57906907 C-507.96899898 1009.59282443 -512.66083813 1009.58810689 -517.35304598 1009.56878388 C-519.03808794 1009.56505445 -520.72316157 1009.56799083 -522.40817491 1009.57849697 C-538.59175882 1009.67243258 -551.83784812 1006.03782243 -564.0625 994.875 C-576.98527736 981.02029158 -577.75587053 966.02474361 -577.69345093 948.18603516 C-577.69690937 946.03963292 -577.70167519 943.89323246 -577.70763266 941.74683571 C-577.7201465 935.85986848 -577.71397042 929.97304732 -577.70467401 924.0860796 C-577.69788549 917.73289314 -577.70836378 911.37973177 -577.71661377 905.02655029 C-577.72918451 893.303913 -577.7280928 881.58132762 -577.71987936 869.85868782 C-577.71232868 859.02860998 -577.71036447 848.19854917 -577.7139473 837.36846924 C-577.71417645 836.64970756 -577.71440561 835.93094587 -577.71464171 835.19040354 C-577.71557574 832.27261648 -577.71653094 829.35482943 -577.717521 826.43704239 C-577.72669521 799.07350958 -577.71838203 771.71000637 -577.70223031 744.34647813 C-577.6879938 720.04281852 -577.68926769 695.73920607 -577.70361328 671.43554688 C-577.71968188 644.12162999 -577.72604455 616.80773924 -577.71677649 589.49381828 C-577.71581436 586.58138912 -577.71487584 583.66895994 -577.7139473 580.75653076 C-577.71371006 580.03943175 -577.71347283 579.32233273 -577.71322841 578.58350344 C-577.70981794 567.76100439 -577.7138032 556.93852426 -577.72138596 546.11602783 C-577.72996614 533.8086923 -577.72752553 521.50142038 -577.71154372 509.19409037 C-577.70365803 502.91442359 -577.70057463 496.63485254 -577.71049118 490.35518646 C-577.71943219 484.60634798 -577.71451476 478.85769393 -577.69855852 473.10887218 C-577.69520824 471.02960096 -577.69691033 468.95031416 -577.70418589 466.87105298 C-577.76843585 446.98318676 -577.76843585 446.98318676 -574.3125 439.0625 C-573.9103125 438.07378906 -573.508125 437.08507812 -573.09375 436.06640625 C-567.45758906 425.32677031 -558.55850475 417.84421319 -549.1953125 410.375 C-546.01803916 407.82629293 -542.91264734 405.20387296 -539.8125 402.5625 C-534.96350907 398.44078655 -530.06087418 394.392572 -525.125 390.375 C-521.99450149 387.80103455 -518.90084366 385.18673097 -515.8125 382.5625 C-509.16216349 376.91392056 -502.41128994 371.39426492 -495.640625 365.890625 C-490.09205717 361.36838185 -484.60335205 356.78366721 -479.14892578 352.14892578 C-474.85138375 348.50295068 -470.49592199 344.9327272 -466.125 341.375 C-462.99450334 338.80103608 -459.90077539 336.18680914 -456.8125 333.5625 C-451.95933401 329.43844815 -447.05437035 325.38584463 -442.11328125 321.3671875 C-439.04474213 318.84216925 -436.02210188 316.26765231 -433 313.6875 C-428.56398397 309.90457508 -424.04649357 306.25717263 -419.4375 302.6875 C-413.69222845 298.23198329 -408.18154559 293.55106595 -402.71191406 288.76269531 C-398.23489615 284.84618043 -393.67707063 281.04922933 -389.0546875 277.3046875 C-385.94249852 274.75996317 -382.87523503 272.16631775 -379.8125 269.5625 C-374.96440534 265.44254393 -370.06403834 261.39453775 -365.12890625 257.37890625 C-361.97464808 254.78462734 -358.8604702 252.14643735 -355.75 249.5 C-351.19965684 245.63008198 -346.58417165 241.86290103 -341.90234375 238.15234375 C-338.28119031 235.23029685 -334.74295431 232.21428514 -331.19921875 229.19921875 C-327.76678391 226.28245487 -324.30657185 223.40556574 -320.8125 220.5625 C-316.77266863 217.27426517 -312.78157935 213.93528574 -308.8125 210.5625 C-303.95933401 206.43844815 -299.05437035 202.38584463 -294.11328125 198.3671875 C-291.04474213 195.84216925 -288.02210188 193.26765231 -285 190.6875 C-280.56398397 186.90457508 -276.04649357 183.25717263 -271.4375 179.6875 C-265.69222845 175.23198329 -260.18154559 170.55106595 -254.71191406 165.76269531 C-250.23489615 161.84618043 -245.67707063 158.04922933 -241.0546875 154.3046875 C-237.94249852 151.75996317 -234.87523503 149.16631775 -231.8125 146.5625 C-226.95944075 142.43832498 -222.05436707 138.38584196 -217.11328125 134.3671875 C-214.04474213 131.84216925 -211.02210188 129.26765231 -208 126.6875 C-203.56398397 122.90457508 -199.04649357 119.25717263 -194.4375 115.6875 C-188.69222845 111.23198329 -183.18154559 106.55106595 -177.71191406 101.76269531 C-173.23489615 97.84618043 -168.67707063 94.04922933 -164.0546875 90.3046875 C-160.94249852 87.75996317 -157.87523503 85.16631775 -154.8125 82.5625 C-149.96440534 78.44254393 -145.06403834 74.39453775 -140.12890625 70.37890625 C-136.97464808 67.78462734 -133.8604702 65.14643735 -130.75 62.5 C-126.19965684 58.63008198 -121.58417165 54.86290103 -116.90234375 51.15234375 C-113.28119031 48.23029685 -109.74295431 45.21428514 -106.19921875 42.19921875 C-102.76678391 39.28245487 -99.30657185 36.40556574 -95.8125 33.5625 C-91.7726639 30.27426132 -87.78171119 26.93513519 -83.8125 23.5625 C-78.89181878 19.3840161 -73.94033056 15.24867791 -68.921875 11.1875 C-67.20722239 9.7911362 -65.50856334 8.37485606 -63.828125 6.9375 C-45.33206896 -8.61332419 -21.22273349 -12.47301003 0 0 Z " fill="#FFFFFF" transform="translate(577.3125,6.9375)"/>
</svg>
