<svg width="1000" height="874" viewBox="0 0 1000 874" fill="none" xmlns="http://www.w3.org/2000/svg">
<path d="M845.862 699.831C864.871 680.797 874.376 657.928 874.376 631.222C874.376 604.517 864.871 581.663 845.862 562.662C826.852 543.66 803.972 534.143 777.223 534.111C750.474 534.079 727.61 543.596 708.633 562.662C689.656 581.728 680.135 604.581 680.07 631.222C680.005 657.863 689.526 680.733 708.633 699.831C727.74 718.93 750.603 728.43 777.223 728.333C803.843 728.236 826.722 718.735 845.862 699.831ZM767.508 874C756.173 874 746.264 870.358 737.779 863.075C729.294 855.791 723.821 846.485 721.36 835.155L714.074 801.167C704.358 797.12 695.258 792.88 686.774 788.445C678.289 784.01 669.578 778.54 660.64 772.033L625.422 782.958C614.897 786.195 604.582 785.791 594.478 781.744C584.375 777.698 576.473 771.224 570.773 762.322L561.058 745.328C555.391 735.617 553.367 725.096 554.986 713.767C556.605 702.437 561.867 693.13 570.773 685.847L597.49 662.783C595.871 653.072 595.061 642.552 595.061 631.222C595.061 619.892 595.871 609.372 597.49 599.661L570.773 576.597C561.867 569.314 556.605 560.218 554.986 549.309C553.367 538.4 555.391 528.074 561.058 518.33L571.988 500.122C577.655 491.22 585.346 484.746 595.061 480.7C604.777 476.654 614.897 476.249 625.422 479.486L660.64 490.411C669.545 483.937 678.257 478.483 686.774 474.048C695.291 469.613 704.391 465.356 714.074 461.278L721.36 426.075C723.789 414.745 729.246 405.649 737.73 398.787C746.215 391.924 756.141 388.477 767.508 388.444H786.938C798.273 388.444 808.199 392.086 816.716 399.369C825.233 406.653 830.689 415.959 833.086 427.289L840.372 461.278C850.088 465.324 859.188 469.565 867.672 473.999C876.157 478.434 884.868 483.905 893.806 490.411L929.024 479.486C939.549 476.249 949.88 476.654 960.016 480.7C970.152 484.746 978.038 491.22 983.673 500.122L993.388 517.117C999.055 526.828 1001.08 537.348 999.46 548.678C997.841 560.007 992.579 569.314 983.673 576.597L956.956 599.661C958.575 609.372 959.385 619.892 959.385 631.222C959.385 642.552 958.575 653.072 956.956 662.783L983.673 685.847C992.579 693.13 997.841 702.243 999.46 713.184C1001.08 724.125 999.055 734.435 993.388 744.114L982.458 762.322C976.791 771.224 969.1 777.698 959.385 781.744C949.669 785.791 939.549 786.195 929.024 782.958L893.806 772.033C884.901 778.507 876.206 783.962 867.721 788.396C859.236 792.831 850.12 797.088 840.372 801.167L833.086 836.369C830.657 847.699 825.2 856.811 816.716 863.706C808.231 870.601 798.305 874.032 786.938 874H767.508ZM97.1529 776.889C70.4358 776.889 47.5725 767.388 28.5629 748.387C9.55337 729.385 0.0323843 706.516 0 679.778V97.1111C0 70.4055 9.52099 47.5521 28.5629 28.5507C47.6049 9.54925 70.4682 0.0323704 97.1529 0H348.536C361.49 0 373.844 2.42778 385.6 7.28334C397.355 12.1389 407.67 19.0176 416.543 27.9194L485.764 97.1111H874.376C901.093 97.1111 923.972 106.628 943.014 125.662C962.056 144.696 971.561 167.549 971.529 194.222V286.478C971.529 301.044 965.262 311.969 952.73 319.253C940.197 326.536 927.033 326.941 913.237 320.467C892.187 310.756 869.923 303.472 846.444 298.617C822.966 293.761 799.487 291.333 776.009 291.333C680.475 291.333 600.129 324.723 534.972 391.503C469.815 458.283 437.22 537.785 437.188 630.008C437.188 645.384 438.208 660.566 440.248 675.553C442.288 690.541 445.316 705.302 449.332 719.836C453.348 734.37 451.324 747.529 443.26 759.312C435.196 771.094 424.267 776.953 410.471 776.889H97.1529Z" fill="#4D4D4D"/>
</svg>
