<svg width="334" height="334" viewBox="0 0 334 334" fill="none" xmlns="http://www.w3.org/2000/svg">
<circle cx="167" cy="167" r="152" stroke="#4D4D4D" stroke-width="30"/>
<path d="M198.708 88.1381C211.863 81.1869 227.541 91.3683 226.541 106.213L220.849 190.739C220.847 190.764 220.844 190.79 220.842 190.815C220.832 190.955 220.82 191.094 220.807 191.234C220.8 191.307 220.795 191.381 220.788 191.454C220.775 191.575 220.759 191.695 220.745 191.816C220.379 194.813 219.353 197.513 217.848 199.824C216.36 202.122 214.329 204.146 211.765 205.695C211.643 205.769 211.521 205.842 211.397 205.914C211.333 205.95 211.269 205.984 211.205 206.02C211.082 206.089 210.96 206.158 210.836 206.224C210.814 206.236 210.791 206.249 210.769 206.261L135.866 245.841C122.711 252.792 107.033 242.611 108.033 227.766L113.725 143.241C113.727 143.215 113.729 143.189 113.731 143.164C113.741 143.024 113.754 142.883 113.767 142.744C113.774 142.671 113.779 142.598 113.787 142.525C113.799 142.404 113.815 142.283 113.83 142.162C114.195 139.164 115.221 136.466 116.726 134.155C118.215 131.856 120.244 129.833 122.808 128.284C122.93 128.21 123.053 128.135 123.177 128.064C123.241 128.027 123.306 127.993 123.37 127.957C123.492 127.889 123.614 127.82 123.738 127.754C123.76 127.742 123.784 127.73 123.806 127.718L198.708 88.1381ZM166.5 137C149.656 137 136 150.656 136 167.5C136.001 184.345 149.656 198 166.5 198C183.345 198 197 184.345 197 167.5C197 150.656 183.345 137.001 166.5 137Z" fill="#4D4D4D"/>
</svg>
