<svg width="336" height="391" viewBox="0 0 336 391" fill="none" xmlns="http://www.w3.org/2000/svg">
<path d="M168 222C260.784 222 336 290.444 336 374.875C336 380.321 335.685 385.701 335.074 391H0.925781C0.315309 385.701 0 380.321 0 374.875C7.96683e-05 290.444 75.2163 222 168 222ZM168 252C94.7079 252 38.5563 301.663 30.8945 361H305.105C297.444 301.663 241.292 252 168 252ZM168 0C223.228 0 268 44.7715 268 100C268 155.228 223.228 200 168 200C112.772 200 68 155.228 68 100C68 44.7715 112.772 0 168 0ZM168 30C129.34 30 98 61.3401 98 100C98 138.66 129.34 170 168 170C206.66 170 238 138.66 238 100C238 61.3401 206.66 30 168 30Z" fill="#4D4D4D"/>
</svg>
