<?xml version="1.0" encoding="UTF-8"?>
<svg version="1.1" xmlns="http://www.w3.org/2000/svg" width="1327" height="1232">
<path d="M0 0 C1.40522289 -0.00702324 2.81044545 -0.01411005 4.21566772 -0.02125549 C8.68154359 -0.04065196 13.14736751 -0.04568969 17.61328125 -0.046875 C18.37442608 -0.04731686 19.13557091 -0.04775871 19.91978073 -0.04821396 C43.05092983 -0.05525559 65.94934496 0.28552748 88.92578125 3.203125 C90.3515063 3.37692649 91.77728921 3.55025391 93.203125 3.72314453 C173.64755675 13.60570889 254.19227554 38.8070543 344.92578125 93.203125 C346.74708557 94.32472273 348.56867492 95.44585782 350.390625 96.56640625 C359.59201043 102.26017616 368.44423082 108.27671614 377.07226562 114.80566406 C378.98830169 116.25026238 380.91640389 117.6773828 382.84765625 119.1015625 C401.14545194 132.63465594 418.65071494 147.19848934 435.31152344 162.70214844 C437.07775877 164.34443743 438.84943279 165.98075388 440.62109375 167.6171875 C459.76875404 185.34497439 459.76875404 185.34497439 467.9921875 194.98828125 C470.02437571 197.31606047 472.11890294 199.57394123 474.22827148 201.83154297 C479.1719137 207.12594508 483.9312881 212.49767415 488.46484375 218.15234375 C490.33332016 220.46866134 492.22193304 222.75764551 494.13671875 225.03515625 C501.95607828 234.36076674 509.27896955 243.92585735 516.28271484 253.87744141 C517.9371755 256.21925303 519.61134408 258.54590281 521.2890625 260.87109375 C558.55531414 312.84854584 585.94431999 371.28341306 604.92578125 432.203125 C605.30959961 433.43192383 605.69341797 434.66072266 606.08886719 435.92675781 C621.54314728 486.09372857 630.96867935 539.84519906 631.12890625 592.3984375 C631.13592646 593.82755566 631.14301329 595.25667349 631.15016174 596.68579102 C631.16958437 601.23324019 631.17459628 605.78063854 631.17578125 610.328125 C631.17622311 611.10253685 631.17666496 611.8769487 631.17712021 612.67482758 C631.18409687 635.97921496 630.87718823 659.05545597 627.92578125 682.203125 C627.75189296 683.62737455 627.57856839 685.05169303 627.40576172 686.47607422 C617.52230975 766.92269827 592.32322343 847.46731487 537.92578125 938.203125 C536.80418352 940.02442932 535.68304843 941.84601867 534.5625 943.66796875 C528.86873009 952.86935418 522.85219011 961.72157457 516.32324219 970.34960938 C514.87864387 972.26564544 513.45152345 974.19374764 512.02734375 976.125 C498.49425031 994.42279569 483.93041691 1011.92805869 468.42675781 1028.58886719 C466.78446882 1030.35510252 465.14815237 1032.12677654 463.51171875 1033.8984375 C445.78393186 1053.04609779 445.78393186 1053.04609779 436.140625 1061.26953125 C433.81284578 1063.30171946 431.55496502 1065.39624669 429.29736328 1067.50561523 C424.00296117 1072.44925745 418.6312321 1077.20863185 412.9765625 1081.7421875 C410.66024491 1083.61066391 408.37126074 1085.49927679 406.09375 1087.4140625 C396.76813951 1095.23342203 387.2030489 1102.5563133 377.25146484 1109.56005859 C374.90965322 1111.21451925 372.58300344 1112.88868783 370.2578125 1114.56640625 C318.28036041 1151.83265789 259.84549319 1179.22166374 198.92578125 1198.203125 C197.08258301 1198.77885254 197.08258301 1198.77885254 195.20214844 1199.36621094 C144.70510241 1214.92217299 90.73960356 1224.22682847 37.8515625 1224.40625 C36.44633961 1224.41327324 35.04111705 1224.42036005 33.63589478 1224.42750549 C29.17001891 1224.44690196 24.70419499 1224.45193969 20.23828125 1224.453125 C19.09656401 1224.45378778 19.09656401 1224.45378778 17.93178177 1224.45446396 C-5.19936733 1224.46150559 -28.09778246 1224.12072252 -51.07421875 1221.203125 C-52.4999438 1221.02932351 -53.92572671 1220.85599609 -55.3515625 1220.68310547 C-135.79599425 1210.80054111 -216.34071304 1185.5991957 -307.07421875 1131.203125 C-308.89552307 1130.08152727 -310.71711242 1128.96039218 -312.5390625 1127.83984375 C-321.80326032 1122.10672811 -330.71455009 1116.04208026 -339.40136719 1109.46728516 C-340.98596341 1108.26981884 -342.58059911 1107.08567156 -344.17578125 1105.90234375 C-357.84232614 1095.75159867 -370.95494485 1085.04342134 -383.859375 1073.94921875 C-384.48972656 1073.40773193 -385.12007813 1072.86624512 -385.76953125 1072.30834961 C-386.9830543 1071.26508156 -388.19536375 1070.22039961 -389.40625 1069.17407227 C-392.22592531 1066.74597278 -395.05900622 1064.3852837 -398.07421875 1062.203125 C-399.03199219 1062.99074219 -399.98976563 1063.77835938 -400.9765625 1064.58984375 C-408.08773956 1070.41464935 -415.24695097 1076.15185586 -422.57421875 1081.703125 C-428.16088863 1085.93630031 -433.65548709 1090.2569862 -439.07421875 1094.703125 C-445.18724914 1099.71894481 -451.41667289 1104.5527806 -457.71875 1109.328125 C-462.58294458 1113.02740278 -467.35010507 1116.82692916 -472.07421875 1120.703125 C-477.49295207 1125.14926516 -482.98759503 1129.46988951 -488.57421875 1133.703125 C-494.93457496 1138.52283251 -501.16082969 1143.47989332 -507.33374023 1148.53686523 C-511.38447066 1151.84900094 -515.47549775 1155.09352572 -519.63671875 1158.265625 C-524.25291389 1161.78597062 -528.80368786 1165.37346313 -533.32421875 1169.015625 C-538.65711794 1173.30984505 -544.05701966 1177.50238461 -549.51171875 1181.640625 C-555.79435754 1186.40953784 -561.94363024 1191.31437112 -568.04125977 1196.31689453 C-573.64426172 1200.89582566 -579.36402622 1205.3084388 -585.13842773 1209.66870117 C-588.90483257 1212.5171292 -592.55085506 1215.44031141 -596.13671875 1218.515625 C-600.21236281 1221.80829799 -604.54351446 1224.22008265 -609.19921875 1226.578125 C-610.18547241 1227.07953003 -610.18547241 1227.07953003 -611.19165039 1227.59106445 C-624.0889536 1233.8518756 -640.53752495 1234.53702706 -654.26171875 1230.578125 C-670.80820098 1224.39473906 -683.71189254 1213.67453903 -691.38671875 1197.640625 C-697.8053975 1183.5547026 -698.78136861 1165.60827688 -693.328125 1151.015625 C-685.43909193 1133.32059756 -672.24308759 1122.59877815 -657.1328125 1111.0871582 C-652.97737558 1107.91851504 -648.89284007 1104.66975656 -644.82421875 1101.390625 C-639.49139525 1097.09631325 -634.09141494 1092.90386319 -628.63671875 1088.765625 C-622.34952011 1083.99325095 -616.19579489 1079.08483985 -610.09399414 1074.07836914 C-605.32909526 1070.18396375 -600.47884712 1066.41958201 -595.57421875 1062.703125 C-589.21386254 1057.88341749 -582.98760781 1052.92635668 -576.81469727 1047.86938477 C-572.76396684 1044.55724906 -568.67293975 1041.31272428 -564.51171875 1038.140625 C-559.89552361 1034.62027938 -555.34474964 1031.03278687 -550.82421875 1027.390625 C-545.49131956 1023.09640495 -540.09141784 1018.90386539 -534.63671875 1014.765625 C-529.03074874 1010.51034577 -523.51577584 1006.16666615 -518.07421875 1001.703125 C-511.92210607 996.65783007 -505.66256224 991.77774628 -499.32641602 986.96606445 C-492.51291457 981.79078193 -485.78526448 976.51027527 -479.07421875 971.203125 C-480.56724591 968.03289867 -482.34650406 965.19941075 -484.3125 962.30078125 C-484.96089844 961.33954346 -485.60929688 960.37830566 -486.27734375 959.38793945 C-486.9734375 958.35757568 -487.66953125 957.32721191 -488.38671875 956.265625 C-522.57166683 905.21370735 -548.79965643 850.85409278 -567.07421875 792.203125 C-567.45803711 790.97432617 -567.84185547 789.74552734 -568.23730469 788.47949219 C-583.79326674 737.98244616 -593.09792222 684.01694731 -593.27734375 631.12890625 C-593.28436699 629.72368336 -593.2914538 628.3184608 -593.29859924 626.91323853 C-593.31799571 622.44736266 -593.32303344 617.98153874 -593.32421875 613.515625 C-593.32466061 612.75448017 -593.32510246 611.99333534 -593.32555771 611.20912552 C-593.33259934 588.07797642 -592.99181627 565.17956129 -590.07421875 542.203125 C-589.90041726 540.77739995 -589.72708984 539.35161704 -589.55419922 537.92578125 C-579.67163486 457.4813495 -554.47028945 376.93663071 -500.07421875 286.203125 C-498.95262102 284.38182068 -497.83148593 282.56023133 -496.7109375 280.73828125 C-490.97782186 271.47408343 -484.91317401 262.56279366 -478.33837891 253.87597656 C-477.14091259 252.29138034 -475.95676531 250.69674464 -474.7734375 249.1015625 C-466.06341393 237.37474569 -457.01858723 225.96070021 -447.50537109 214.87695312 C-446.00558779 213.12285652 -444.51769022 211.35916328 -443.03125 209.59375 C-437.92256926 203.54710319 -432.74872383 197.72189465 -427.0703125 192.1953125 C-425.21867281 190.34729637 -423.51599925 188.44686143 -421.82421875 186.453125 C-414.95320716 178.46096933 -407.32123921 170.94822463 -399.28515625 164.1328125 C-396.83282346 161.99243724 -394.46435218 159.77563262 -392.09228516 157.54711914 C-386.57632191 152.36735157 -381.00293006 147.35764633 -375.08984375 142.62890625 C-372.78497368 140.77485921 -370.5097761 138.89934189 -368.24609375 136.99609375 C-358.91965435 129.17480156 -349.35300588 121.85100608 -339.39990234 114.84619141 C-337.05809072 113.19173075 -334.73144094 111.51756217 -332.40625 109.83984375 C-280.42879791 72.57359211 -221.99393069 45.18458626 -161.07421875 26.203125 C-159.84541992 25.81930664 -158.61662109 25.43548828 -157.35058594 25.04003906 C-106.85353991 9.48407701 -52.88804106 0.17942153 0 0 Z M-297.07421875 234.203125 C-297.67041016 234.70021973 -298.26660156 235.19731445 -298.88085938 235.70947266 C-311.30765757 246.10509904 -323.09195559 257.15205562 -334.57421875 268.578125 C-335.54367432 269.54057129 -335.54367432 269.54057129 -336.53271484 270.52246094 C-340.91490796 274.91940892 -345.02503596 279.49982539 -349.07421875 284.203125 C-350.11989437 285.39428313 -351.16673741 286.58441762 -352.21484375 287.7734375 C-380.88397353 320.47245608 -405.08845127 357.01782606 -424.07226562 396.14599609 C-425.09734416 398.25060422 -426.14030726 400.34577366 -427.18359375 402.44140625 C-455.2498641 459.48437406 -469.77642523 523.15383791 -473.26171875 586.390625 C-473.30478149 587.16845337 -473.34784424 587.94628174 -473.39221191 588.74768066 C-477.7625179 669.69912855 -460.81975573 750.84122275 -359.07421875 928.203125 C-358.57712402 928.79931641 -358.0800293 929.39550781 -357.56787109 930.00976562 C-347.17224471 942.43656382 -336.12528813 954.22086184 -324.69921875 965.703125 C-324.05758789 966.34942871 -323.41595703 966.99573242 -322.75488281 967.66162109 C-318.35793483 972.04381421 -313.77751836 976.15394221 -309.07421875 980.203125 C-307.88306062 981.24880062 -306.69292613 982.29564366 -305.50390625 983.34375 C-272.80488767 1012.01287978 -236.25951769 1036.21735752 -197.13134766 1055.20117188 C-195.02673953 1056.22625041 -192.93157009 1057.26921351 -190.8359375 1058.3125 C-133.74178897 1086.40694503 -70.25070364 1100.89094317 -6.94921875 1104.390625 C-6.1756604 1104.43368774 -5.40210205 1104.47675049 -4.60510254 1104.52111816 C74.64837621 1108.82300358 155.11381402 1092.89096923 334.92578125 990.203125 C335.52197266 989.70603027 336.11816406 989.20893555 336.73242188 988.69677734 C349.15922007 978.30115096 360.94351809 967.25419438 372.42578125 955.828125 C373.07208496 955.18649414 373.71838867 954.54486328 374.38427734 953.88378906 C378.76647046 949.48684108 382.87659846 944.90642461 386.92578125 940.203125 C387.97145687 939.01196687 389.01829991 937.82183238 390.06640625 936.6328125 C418.73553603 903.93379392 442.94001377 867.38842394 461.92382812 828.26025391 C462.94890666 826.15564578 463.99186976 824.06047634 465.03515625 821.96484375 C493.12960128 764.87069522 507.61359942 701.37960989 511.11328125 638.078125 C511.15634399 637.30456665 511.19940674 636.5310083 511.24377441 635.73400879 C515.54565983 556.48053004 499.61362548 476.01509223 396.92578125 296.203125 C396.42868652 295.60693359 395.9315918 295.01074219 395.41943359 294.39648438 C385.02380721 281.96968618 373.97685063 270.18538816 362.55078125 258.703125 C361.90915039 258.05682129 361.26751953 257.41051758 360.60644531 256.74462891 C356.20949733 252.36243579 351.62908086 248.25230779 346.92578125 244.203125 C345.73462312 243.15744938 344.54448863 242.11060634 343.35546875 241.0625 C310.65645017 212.39337022 274.11108019 188.18889248 234.98291016 169.20507812 C232.87830203 168.17999959 230.78313259 167.13703649 228.6875 166.09375 C171.59335147 137.99930497 108.10226614 123.51530683 44.80078125 120.015625 C44.0272229 119.97256226 43.25366455 119.92949951 42.45666504 119.88513184 C-36.79681371 115.58324642 -117.26225152 131.51528077 -297.07421875 234.203125 Z " fill="#FFFFFF" transform="translate(696.07421875,-0.203125)"/>
</svg>
